<?xml version="1.0" encoding="UTF-8" standalone="no"?>
<!-- Generator: Adobe Illustrator 17.0.0, SVG Export Plug-In . SVG Version: 6.00 Build 0)  -->

<svg
   xmlns:dc="http://purl.org/dc/elements/1.1/"
   xmlns:cc="http://creativecommons.org/ns#"
   xmlns:rdf="http://www.w3.org/1999/02/22-rdf-syntax-ns#"
   xmlns:svg="http://www.w3.org/2000/svg"
   xmlns="http://www.w3.org/2000/svg"
   xmlns:sodipodi="http://sodipodi.sourceforge.net/DTD/sodipodi-0.dtd"
   xmlns:inkscape="http://www.inkscape.org/namespaces/inkscape"
   version="1.1"
   id="Capa_1"
   x="0px"
   y="0px"
   width="16"
   height="16"
   viewBox="0 0 16.000001 16"
   enable-background="new 0 0 16.63 17.42"
   xml:space="preserve"
   inkscape:version="0.48.2 r9819"
   sodipodi:docname="magic4.svg" preserveAspectRatio="xMinYMid meet"><metadata
   id="metadata9"><rdf:RDF><cc:Work
       rdf:about=""><dc:format>image/svg+xml</dc:format><dc:type
         rdf:resource="http://purl.org/dc/dcmitype/StillImage" /></cc:Work></rdf:RDF></metadata><defs
   id="defs7" /><sodipodi:namedview
   pagecolor="#ffffff"
   bordercolor="#666666"
   borderopacity="1"
   objecttolerance="10"
   gridtolerance="10"
   guidetolerance="10"
   inkscape:pageopacity="0"
   inkscape:pageshadow="2"
   inkscape:window-width="640"
   inkscape:window-height="480"
   id="namedview5"
   showgrid="false"
   inkscape:zoom="13.547646"
   inkscape:cx="8.3149996"
   inkscape:cy="8.71"
   inkscape:window-x="0"
   inkscape:window-y="0"
   inkscape:window-maximized="0"
   inkscape:current-layer="Capa_1" />
<path
   d="M 9.1155554,2.2598719 C 9.0239686,2.189835 9.0392331,2.1063293 9.1514718,2.0749025 L 10.360058,1.7426759 c 0.113137,-0.031427 0.237049,-0.1481552 0.274761,-0.2568023 l 0.409447,-1.18613896 c 0.03771,-0.109545 0.122115,-0.11942201 0.185867,-0.0215498 l 0.691391,1.04516706 c 0.06465,0.096974 0.212804,0.1786841 0.329533,0.1822757 l 1.253482,0.024244 c 0.116728,0 0.151747,0.07722 0.07902,0.1688071 l -0.780284,0.9805175 c -0.07273,0.091587 -0.105055,0.2577001 -0.07094,0.369041 l 0.363654,1.1987096 c 0.03322,0.1122388 -0.02694,0.1688071 -0.136483,0.1292991 L 11.784143,3.9344738 c -0.107749,-0.040406 -0.276556,-0.019754 -0.371734,0.046691 L 10.383404,4.699493 C 10.288226,4.76504 10.213699,4.724635 10.219985,4.607008 l 0.05567,-1.2507881 C 10.282838,3.2394916 10.20921,3.0868469 10.115827,3.015912 L 9.1155554,2.2598719 z M 10.0844,6.1415363 c 0.159828,-0.130197 0.129299,-0.2747605 -0.07273,-0.3214518 L 7.8674607,5.3037864 C 7.6690227,5.2535034 7.446341,5.0568611 7.3718145,4.8674022 L 6.5807559,2.8084948 C 6.5071273,2.6163421 6.3580743,2.6019756 6.2530188,2.7761701 L 5.0983067,4.6581892 C 4.9914554,4.8314858 4.7355511,4.9850284 4.5308277,4.9958033 L 2.3291527,5.1089399 C 2.1235313,5.1215107 2.0651672,5.257993 2.1980578,5.4142293 L 3.6302241,7.0915249 C 3.7622168,7.2486591 3.8286622,7.5377861 3.7747876,7.7371221 L 3.2055127,9.8669639 C 3.1498427,10.0663 3.2629787,10.163275 3.4506421,10.086054 L 5.4906933,9.2429169 c 0.189459,-0.078118 0.4866672,-0.051181 0.6554742,0.059262 l 1.8514902,1.2005061 c 0.1706028,0.112238 0.299004,0.03681 0.2828416,-0.168807 L 8.1098964,8.1348962 C 8.0946319,7.9328664 8.2104623,7.658106 8.372984,7.5279091 L 10.0844,6.1415363 z M 2.2483408,3.3409554 2.9280586,3.5959618 c 0.062854,0.023346 0.09877,-0.00988 0.079016,-0.074527 L 2.7969637,2.826453 c -0.018856,-0.06465 -0.0018,-0.1607258 0.040406,-0.2137025 L 3.2908141,2.0434757 c 0.042202,-0.051181 0.019754,-0.096076 -0.046691,-0.097872 L 2.5168158,1.9312369 c -0.068241,0 -0.1535425,-0.047589 -0.1912548,-0.1041575 L 1.9259912,1.2209902 C 1.8882789,1.1644219 1.8406897,1.1698094 1.8173441,1.2344589 L 1.5793979,1.9213599 C 1.5578481,1.9851115 1.4860153,2.0524548 1.4213658,2.069515 L 0.72099609,2.2625657 c -0.0655474,0.018856 -0.0745265,0.066445 -0.019754,0.1077492 L 1.2812918,2.8093927 c 0.053875,0.040406 0.096076,0.130197 0.093383,0.1975402 l -0.034121,0.7255112 c -0.00269,0.069139 0.03861,0.091587 0.09428,0.053875 L 2.0301487,3.3696885 c 0.056568,-0.040406 0.1526447,-0.052977 0.2181921,-0.028733 z M 15.34705,14.279294 13.839459,12.771703 9.1128617,7.937356 C 8.9251986,8.1160401 8.7860225,8.4312064 8.801287,8.6763358 l 0.1041575,1.8074932 5.1189845,5.118984 c 0.299004,0.298106 0.745265,0.33492 0.997577,0.08261 l 0.407652,-0.407652 c 0.252312,-0.254108 0.215498,-0.700369 -0.08261,-0.998475 z"
   id="path3"
   inkscape:connector-curvature="0" />
</svg>