<?xml version="1.0" encoding="UTF-8" standalone="no"?>
<!-- Generator: Adobe Illustrator 15.1.0, SVG Export Plug-In . SVG Version: 6.00 Build 0)  -->

<svg
   xmlns:dc="http://purl.org/dc/elements/1.1/"
   xmlns:cc="http://creativecommons.org/ns#"
   xmlns:rdf="http://www.w3.org/1999/02/22-rdf-syntax-ns#"
   xmlns:svg="http://www.w3.org/2000/svg"
   xmlns="http://www.w3.org/2000/svg"
   xmlns:sodipodi="http://sodipodi.sourceforge.net/DTD/sodipodi-0.dtd"
   xmlns:inkscape="http://www.inkscape.org/namespaces/inkscape"
   version="1.1"
   x="0px"
   y="0px"
   width="16"
   height="16"
   viewBox="0 0 16 16"
   xml:space="preserve"
   id="svg2"
   inkscape:version="0.48.2 r9819"
   sodipodi:docname="moon1.svg"><metadata
   id="metadata12"><rdf:RDF><cc:Work
       rdf:about=""><dc:format>image/svg+xml</dc:format><dc:type
         rdf:resource="http://purl.org/dc/dcmitype/StillImage" /></cc:Work></rdf:RDF></metadata><defs
   id="defs10" /><sodipodi:namedview
   pagecolor="#ffffff"
   bordercolor="#666666"
   borderopacity="1"
   objecttolerance="10"
   gridtolerance="10"
   guidetolerance="10"
   inkscape:pageopacity="0"
   inkscape:pageshadow="2"
   inkscape:window-width="640"
   inkscape:window-height="480"
   id="namedview8"
   showgrid="false"
   inkscape:zoom="7.375"
   inkscape:cx="16"
   inkscape:cy="16"
   inkscape:window-x="0"
   inkscape:window-y="0"
   inkscape:window-maximized="0"
   inkscape:current-layer="svg2" />
<g
   id="Layer_1"
   transform="translate(0,-16)">
</g>
<g
   id="moon_x5F_stroke"
   transform="matrix(0.47881356,0,0,0.47881356,0.40677966,0.40677966)">
	<path
   style="fill:#000000"
   d="m 5.895,9.148 c 0.848,8.959 8,16.109 16.957,16.953 -1.91,1.211 -4.152,1.898 -6.5,1.898 C 9.539,28 4,22.461 4,15.646 4,13.299 4.688,11.059 5.895,9.148 M 11.844,0 C 5.02,1.969 0,8.189 0,15.646 0,24.68 7.32,32 16.352,32 23.809,32 30.032,26.977 32,20.156 29.82,21.414 27.328,22.187 24.633,22.187 16.445,22.187 9.813,15.548 9.813,7.365 9.812,4.67 10.586,2.178 11.844,0 l 0,0 z"
   id="path6"
   inkscape:connector-curvature="0" />
</g>
</svg>