<?xml version="1.0" encoding="UTF-8" standalone="no"?>
<!-- Generator: Adobe Illustrator 16.0.0, SVG Export Plug-In . SVG Version: 6.00 Build 0)  -->

<svg
   xmlns:dc="http://purl.org/dc/elements/1.1/"
   xmlns:cc="http://creativecommons.org/ns#"
   xmlns:rdf="http://www.w3.org/1999/02/22-rdf-syntax-ns#"
   xmlns:svg="http://www.w3.org/2000/svg"
   xmlns="http://www.w3.org/2000/svg"
   xmlns:sodipodi="http://sodipodi.sourceforge.net/DTD/sodipodi-0.dtd"
   xmlns:inkscape="http://www.inkscape.org/namespaces/inkscape"
   version="1.1"
   id="Layer_13"
   x="0px"
   y="0px"
   width="16"
   height="16"
   viewBox="0 0 16 16"
   enable-background="new 0 0 100 100"
   xml:space="preserve"
   inkscape:version="0.48.2 r9819"
   sodipodi:docname="dice9.svg" preserveAspectRatio="xMinYMid meet"><metadata
   id="metadata9"><rdf:RDF><cc:Work
       rdf:about=""><dc:format>image/svg+xml</dc:format><dc:type
         rdf:resource="http://purl.org/dc/dcmitype/StillImage" /></cc:Work></rdf:RDF></metadata><defs
   id="defs7" /><sodipodi:namedview
   pagecolor="#ffffff"
   bordercolor="#666666"
   borderopacity="1"
   objecttolerance="10"
   gridtolerance="10"
   guidetolerance="10"
   inkscape:pageopacity="0"
   inkscape:pageshadow="2"
   inkscape:window-width="851"
   inkscape:window-height="1006"
   id="namedview5"
   showgrid="false"
   inkscape:zoom="45"
   inkscape:cx="8"
   inkscape:cy="8"
   inkscape:window-x="0"
   inkscape:window-y="0"
   inkscape:window-maximized="0"
   inkscape:current-layer="Layer_13" />
<path
   d="M 14.893635,3.5750601 7.9476306,1.046724 c -0.028799,-0.010549 -0.061269,-0.01049 -0.0909,1.628e-4 L 0.90748064,3.5938365 c -0.052336,0.019144 -0.086876,0.069416 -0.086777,0.1248137 l 0.035174,8.7615118 c 9.69e-5,0.0541 0.033084,0.10274 0.083539,0.122344 l 6.72399716,2.671571 0.2704691,0.09137 0.2599704,-0.09214 6.7143837,-2.695643 c 0.05017,-0.02 0.0832,-0.06854 0.0831,-0.123076 l -0.0099,-8.7548469 c -7.5e-4,-0.056049 -0.03547,-0.1053336 -0.08787,-0.1247178 z M 7.6621781,14.70273 1.3851922,12.209553 1.3710237,4.2996194 7.6477926,6.7927964 7.6619611,14.70273 z M 7.9120752,6.3278844 1.7448913,3.877579 7.9044628,1.5945622 14.127319,3.8328912 z M 14.459987,12.186133 8.1921902,14.70178 8.1780217,6.7918467 14.445818,4.2761994 z M 3.8528136,9.3741221 C 3.8521573,9.0077229 4.1440008,8.8262726 4.5048128,8.9688967 4.8654093,9.1117376 5.1585322,9.5245761 5.1591893,9.8914077 5.1596296,10.257807 4.8677872,10.439258 4.5069741,10.296633 4.1461617,10.153793 3.8532539,9.7405207 3.8528136,9.3741221 z M 2.1126273,6.5408423 C 2.111971,6.1744432 2.4040304,5.9929927 2.7648429,6.1358327 3.1256549,6.2784572 3.4185629,6.691296 3.41922,7.0581278 3.419877,7.4249596 3.1278168,7.6059776 2.7670048,7.4633534 2.4059749,7.3202969 2.113284,6.9074577 2.1126273,6.5408423 z M 5.586238,7.9952432 C 5.5855813,7.6286278 5.8776408,7.4471769 6.2384532,7.5900176 6.5992657,7.7328582 6.8921736,8.145697 6.8928303,8.5123124 6.8934874,8.8791442 6.6012106,9.060379 6.2406141,8.917538 5.8798017,8.7746974 5.5868947,8.3618586 5.586238,7.9952432 z M 2.0197565,10.778097 c -4.403e-4,-0.366399 0.2914032,-0.547849 0.6522152,-0.405226 0.3608129,0.143058 0.6537194,0.555679 0.6543765,0.922512 6.571e-4,0.366831 -0.2914018,0.548066 -0.6522152,0.405226 C 2.313105,11.557984 2.0204132,11.144713 2.0197565,10.778097 z m 3.6735318,1.45426 c -4.411e-4,-0.366833 0.2914032,-0.54785 0.6522152,-0.405226 0.3608121,0.142624 0.65372,0.555463 0.6543775,0.922511 6.563e-4,0.366398 -0.2914031,0.54785 -0.6522156,0.405009 C 5.9866364,13.012028 5.6939446,12.598755 5.6932883,12.232357 z M 6.7284357,3.8917827 C 6.563134,4.1578432 6.0347529,4.3446949 5.5470928,4.3087774 5.059433,4.2730708 4.7977756,4.0285561 4.9628607,3.762712 5.1279468,3.4968679 5.6561113,3.3102335 6.1439881,3.3459347 6.6312144,3.381422 6.8930878,3.6259393 6.7284357,3.8917827 z M 10.716567,4.0468553 C 10.551916,4.3131316 10.023101,4.4995512 9.5356578,4.4638492 9.0477821,4.4281431 8.7863403,4.183412 8.9512098,3.9177852 9.1158621,3.6515089 9.6448934,3.465089 10.132552,3.5005745 c 0.487227,0.036137 0.749102,0.2806536 0.584015,0.5462808 z m 0.184926,6.1472237 C 10.675705,9.9178977 10.734712,9.3925389 11.033139,9.020843 11.33135,8.6489309 11.756045,8.5715573 11.981185,8.8477397 c 0.225571,0.2757487 0.166564,0.8013237 -0.131431,1.1730193 -0.298426,0.371913 -0.723122,0.449286 -0.948261,0.17332 z"
   id="path3"
   inkscape:connector-curvature="0"
   sodipodi:nodetypes="ccccccccccccccccccccccccccccccccccccscscsssscsccscccssccccscccccccccccc"
   style="stroke:#000000;stroke-width:0.30000001;stroke-miterlimit:4;stroke-opacity:1;stroke-dasharray:none" />
</svg>