<?xml version="1.0" encoding="UTF-8" standalone="no"?>
<!-- Generator: Adobe Illustrator 16.0.0, SVG Export Plug-In . SVG Version: 6.00 Build 0)  -->

<svg
   xmlns:osb="http://www.openswatchbook.org/uri/2009/osb"
   xmlns:dc="http://purl.org/dc/elements/1.1/"
   xmlns:cc="http://creativecommons.org/ns#"
   xmlns:rdf="http://www.w3.org/1999/02/22-rdf-syntax-ns#"
   xmlns:svg="http://www.w3.org/2000/svg"
   xmlns="http://www.w3.org/2000/svg"
   xmlns:sodipodi="http://sodipodi.sourceforge.net/DTD/sodipodi-0.dtd"
   xmlns:inkscape="http://www.inkscape.org/namespaces/inkscape"
   version="1.1"
   id="Layer_13"
   x="0px"
   y="0px"
   width="16"
   height="16"
   viewBox="0 0 16 16"
   enable-background="new 0 0 100 100"
   xml:space="preserve"
   inkscape:version="0.48.2 r9819"
   sodipodi:docname="icon.svg"><metadata
   id="metadata9"><rdf:RDF><cc:Work
       rdf:about=""><dc:format>image/svg+xml</dc:format><dc:type
         rdf:resource="http://purl.org/dc/dcmitype/StillImage" /></cc:Work></rdf:RDF></metadata><defs
   id="defs7"><inkscape:perspective
     sodipodi:type="inkscape:persp3d"
     inkscape:vp_x="0 : 50 : 1"
     inkscape:vp_y="0 : 1000 : 0"
     inkscape:vp_z="100 : 50 : 1"
     inkscape:persp3d-origin="50 : 33.333333 : 1"
     id="perspective2991" /><linearGradient
     id="linearGradient5337"
     osb:paint="solid"><stop
       style="stop-color:#000000;stop-opacity:1;"
       offset="0"
       id="stop5339" /></linearGradient></defs><sodipodi:namedview
   pagecolor="#ffffff"
   bordercolor="#666666"
   borderopacity="1"
   objecttolerance="10"
   gridtolerance="10"
   guidetolerance="10"
   inkscape:pageopacity="0"
   inkscape:pageshadow="2"
   inkscape:window-width="1701"
   inkscape:window-height="975"
   id="namedview5"
   showgrid="false"
   inkscape:zoom="46.3125"
   inkscape:cx="7.9336023"
   inkscape:cy="7.805668"
   inkscape:window-x="0"
   inkscape:window-y="0"
   inkscape:window-maximized="0"
   inkscape:current-layer="Layer_13" />
<path
   sodipodi:nodetypes="ccccccccccccccccccccccccccccccscscsssscsccscccssccccscccccccccccc"
   inkscape:connector-curvature="0"
   id="path5204"
   d="M 12.16797,3.8454415 8.0025125,0.32697471 c -0.017255,-0.0146376 -0.039746,-0.0228602 -0.062974,-0.0230234 l -5.4595374,-0.005462 c -0.041108,-7.391e-5 -0.077816,0.0259424 -0.09185,0.0643257 L 0.18240004,6.4377228 c -0.0137049,0.037483 -0.003249,0.079551 0.0266985,0.1059681 l 3.97529478,3.5611261 0.1533731,0.127565 0.2140632,0.0069 5.334777,-0.15729 c 0.039829,-0.0011 0.075054,-0.02628 0.088861,-0.06406 L 12.197064,3.9541546 c 0.01376,-0.038998 0.0023,-0.081956 -0.02908,-0.1087142 z M 4.3289624,9.7089335 0.6177444,6.3850977 2.6212826,0.90511809 6.3323507,4.2288988 4.3288124,9.7088785 z M 6.6336604,3.9742901 2.9875507,0.70808411 7.8331816,0.69527778 11.57179,3.828895 z M 9.6759272,9.6968643 4.6961534,9.8431783 6.6996916,4.3631987 11.679464,4.2168847 z M 2.7481251,3.108316 C 2.8409316,2.8544758 3.0893218,2.8031889 3.3027696,2.9939224 3.5162721,3.1845061 3.6139826,3.5448863 3.5210662,3.7990265 3.4281499,4.0531665 3.1798695,4.1041536 2.9663669,3.9135699 2.752824,3.7226316 2.6552638,3.3623061 2.7481251,3.108316 z M 4.2372299,4.5738254 C 4.3300913,4.3198353 4.5784814,4.2685485 4.7919292,4.4592818 5.0053768,4.6500155 5.1030871,5.0103956 5.0102257,5.2643861 4.9173096,5.5185261 4.6688242,5.5696081 4.4555264,5.3789293 4.2420787,5.1881958 4.1443684,4.8278155 4.2372299,4.5738254 z M 1.8613205,5.396448 C 1.9542769,5.1426625 2.2025171,5.0913209 2.4160195,5.2819043 2.6294126,5.4727881 2.7271777,5.8330183 2.6342613,6.0871584 2.5413451,6.3412985 2.2930098,6.3924354 2.079562,6.2017019 1.8659098,6.0110633 1.768459,5.6504379 1.8613205,5.396448 z m 1.541156,1.6080444 C 3.4955428,6.7504073 3.7436734,6.6993656 3.9571759,6.8899491 4.1706783,7.0805327 4.2683887,7.440913 4.1754176,7.6952028 4.0826108,7.9490431 3.8342206,8.0003298 3.620773,7.8095963 3.4071205,7.618958 3.3096699,7.2583326 3.4024765,7.0044924 z M 6.4595677,1.9171479 C 6.277401,2.0592779 5.8640211,2.0541521 5.535536,1.9051586 5.2069964,1.756315 5.0880786,1.5204231 5.2700403,1.3783883 5.4520024,1.2363535 5.8651777,1.2415745 6.1938673,1.3904732 6.522162,1.5390572 6.6412298,1.7750038 6.4595677,1.917148 z M 8.8098929,2.9821238 C 8.6281215,3.1245684 8.2145509,3.119033 7.886161,2.9702441 7.5574715,2.8213456 7.4387583,2.5853587 7.6205155,2.4434191 7.8022871,2.3009748 8.2160074,2.3065649 8.5446017,2.4552591 8.8727316,2.604293 8.9918003,2.8402396 8.8098929,2.9821243 z M 7.7192798,7.4119248 C 7.6332546,7.1632424 7.8078296,6.8145343 8.1090526,6.6331538 8.4101806,6.4515685 8.7239089,6.506099 8.8094845,6.7546171 8.8954693,7.0029449 8.720839,7.351803 8.4199162,7.5332932 8.1186383,7.7148235 7.8049101,7.660293 7.7192798,7.4119248 z"
   style="stroke:#000000;stroke-opacity:1;stroke-width:0.16;stroke-miterlimit:4;stroke-dasharray:none" />
<g
   id="g3862"
   transform="matrix(0.15964193,0,0,0.15964193,-8.6787347,-13.983252)"
   style="stroke:#000000;stroke-opacity:1"><path
     id="path3806"
     d="m 120.84375,118.8125 c -0.0713,0 -0.15025,0.007 -0.21875,0.0312 L 88.5,130.5625 c -0.242,0.088 -0.40625,0.3065 -0.40625,0.5625 l 0.09375,40.5 c 0,0.25 0.142,0.4715 0.375,0.5625 l 31.0625,12.375 1.1875,0.4375 1.25,-0.4375 31.0625,-12.375 c 0.232,-0.092 0.375,-0.34175 0.375,-0.59375 l 0.0312,-40.4375 c -0.003,-0.259 -0.16425,-0.4725 -0.40625,-0.5625 l -32.0625,-11.75 c -0.0665,-0.0245 -0.1475,-0.0312 -0.21875,-0.0312 z"
     style="fill:#1b1b1b;fill-opacity:0.96862744999999995;fill-rule:nonzero;stroke:#000000;stroke-opacity:1"
     inkscape:connector-curvature="0" /><path
     id="path3804"
     d="m 120.84375,121.375 28.75,10.375 -28.75,11.5 -28.46875,-11.375 28.46875,-10.5 z"
     style="fill:#ffffff;fill-opacity:1;fill-rule:nonzero;stroke:#000000;stroke-opacity:1"
     inkscape:connector-curvature="0" /><path
     inkscape:connector-curvature="0"
     id="path3802"
     d="m 107.37202,129.82051 c -1.98788,0.0678 -3.92437,0.86388 -4.59375,1.9375 -0.765,1.227 0.4345,2.36225 2.6875,2.53125 2.253,0.17 4.70275,-0.7095 5.46875,-1.9375 0.763,-1.227 -0.46775,-2.332 -2.71875,-2.5 -0.28175,-0.0211 -0.55977,-0.0409 -0.84375,-0.0312 z"
     style="fill:#1b1b1b;fill-opacity:0.96862744999999995;fill-rule:nonzero;stroke:#000000;stroke-opacity:1" /><path
     inkscape:connector-curvature="0"
     id="path3800"
     d="m 121.58057,129.97456 c -1.98794,0.0683 -3.95737,0.86212 -4.625,1.9375 -0.764,1.226 0.46475,2.331 2.71875,2.5 2.25199,0.169 4.6745,-0.67725 5.4375,-1.90625 0.765,-1.226 -0.4365,-2.36025 -2.6875,-2.53125 -0.28162,-0.021 -0.55976,-0.01 -0.84375,0 z"
     style="fill:#1b1b1b;fill-opacity:0.96862744999999995;fill-rule:nonzero;stroke:#000000;stroke-opacity:1" /><path
     id="path3798"
     d="m 90.625,133.8125 29,11.5625 0,36.5625 -29,-11.5625 0,-36.5625 z"
     style="fill:#ffffff;fill-opacity:1;fill-rule:nonzero;stroke:#000000;stroke-opacity:1"
     inkscape:connector-curvature="0" /><path
     id="path3796"
     d="m 151.0625,133.8125 0,36.5625 -29,11.5625 0,-36.5625 29,-11.5625 z"
     style="fill:#ffffff;fill-opacity:1;fill-rule:nonzero;stroke:#000000;stroke-opacity:1"
     inkscape:connector-curvature="0" /><path
     id="path3794"
     d="m 95.4375,142.09375 c -1.082813,0.0348 -1.84375,0.824 -1.84375,2.09375 0,1.694 1.333,3.586 3,4.25 1.666,0.662 3.03125,-0.18 3.03125,-1.875 0,-1.695 -1.36525,-3.588 -3.03125,-4.25 -0.4165,-0.16575 -0.795312,-0.23034 -1.15625,-0.21875 z"
     style="fill:#1b1b1b;fill-opacity:0.96862744999999995;fill-rule:nonzero;stroke:#000000;stroke-opacity:1"
     inkscape:connector-curvature="0" /><path
     id="path3792"
     d="m 112.375,148.84375 c -1.08281,0.0348 -1.84375,0.82325 -1.84375,2.09375 0,1.694 1.36525,3.587 3.03125,4.25 1.665,0.663 3,-0.18 3,-1.875 0,-1.694 -1.334,-3.587 -3,-4.25 -0.4165,-0.16575 -0.82656,-0.23036 -1.1875,-0.21875 z"
     style="fill:#1b1b1b;fill-opacity:0.96862744999999995;fill-rule:nonzero;stroke:#000000;stroke-opacity:1"
     inkscape:connector-curvature="0" /><path
     id="path3790"
     d="m 138.15625,154.15625 c -0.94989,-0.0575 -2.04313,0.49 -2.90625,1.5625 -1.382,1.715 -1.666,4.12825 -0.625,5.40625 1.038,1.277 2.993,0.93475 4.375,-0.78125 1.38,-1.715 1.665,-4.1615 0.625,-5.4375 -0.38925,-0.47925 -0.89881,-0.71551 -1.46875,-0.75 z"
     style="fill:#1b1b1b;fill-opacity:0.96862744999999995;fill-rule:nonzero;stroke:#000000;stroke-opacity:1"
     inkscape:connector-curvature="0" /><path
     id="path3788"
     d="m 103.90625,154.71875 c -1.08253,0.0352 -1.84375,0.824 -1.84375,2.09375 -0.001,1.693 1.334,3.61825 3,4.28125 1.666,0.662 3.03025,-0.182 3.03125,-1.875 0,-1.695 -1.335,-3.587 -3,-4.25 -0.4165,-0.1655 -0.82666,-0.26173 -1.1875,-0.25 z"
     style="fill:#1b1b1b;fill-opacity:0.96862744999999995;fill-rule:nonzero;stroke:#000000;stroke-opacity:1"
     inkscape:connector-curvature="0" /><path
     id="path3786"
     d="m 95.4375,159.8125 c -1.082578,0.0352 -1.843,0.824 -1.84375,2.09375 0,1.694 1.333,3.61925 3,4.28125 1.666,0.663 3.03125,-0.18 3.03125,-1.875 0,-1.695 -1.36525,-3.61725 -3.03125,-4.28125 -0.4165,-0.1655 -0.795391,-0.23048 -1.15625,-0.21875 z"
     style="fill:#1b1b1b;fill-opacity:0.96862744999999995;fill-rule:nonzero;stroke:#000000;stroke-opacity:1"
     inkscape:connector-curvature="0" /><path
     id="path2988"
     d="m 112.375,166.5625 c -1.08258,0.0347 -1.843,0.8225 -1.84375,2.09375 0,1.693 1.36425,3.588 3.03125,4.25 1.666,0.663 3,-0.15075 3,-1.84375 0,-1.696 -1.334,-3.61925 -3,-4.28125 -0.4165,-0.1655 -0.82664,-0.23033 -1.1875,-0.21875 z"
     style="fill:#1b1b1b;fill-opacity:0.96862744999999995;fill-rule:nonzero;stroke:#000000;stroke-opacity:1"
     inkscape:connector-curvature="0" /><path
     style="fill:#1b1b1b;fill-opacity:0.96862744999999995;fill-rule:nonzero;stroke:#000000;stroke-opacity:1"
     d="m 134.78281,129.97456 c -1.98794,0.0683 -3.95737,0.86212 -4.625,1.9375 -0.764,1.226 0.46475,2.331 2.71875,2.5 2.25199,0.169 4.6745,-0.67725 5.4375,-1.90625 0.765,-1.226 -0.4365,-2.36025 -2.6875,-2.53125 -0.28162,-0.021 -0.55976,-0.01 -0.84375,0 z"
     id="path3859"
     inkscape:connector-curvature="0" /></g></svg>