<?xml version="1.0" encoding="UTF-8" standalone="no"?>
<!-- Generator: Adobe Illustrator 16.0.4, SVG Export Plug-In . SVG Version: 6.00 Build 0)  -->

<svg
   xmlns:dc="http://purl.org/dc/elements/1.1/"
   xmlns:cc="http://creativecommons.org/ns#"
   xmlns:rdf="http://www.w3.org/1999/02/22-rdf-syntax-ns#"
   xmlns:svg="http://www.w3.org/2000/svg"
   xmlns="http://www.w3.org/2000/svg"
   xmlns:sodipodi="http://sodipodi.sourceforge.net/DTD/sodipodi-0.dtd"
   xmlns:inkscape="http://www.inkscape.org/namespaces/inkscape"
   version="1.1"
   id="Capa_1"
   x="0px"
   y="0px"
   width="16"
   height="16"
   viewBox="0 0 16 16"
   enable-background="new 0 0 216 146"
   xml:space="preserve"
   inkscape:version="0.48.2 r9819"
   sodipodi:docname="check30.svg" preserveAspectRatio="xMinYMid meet"><metadata
   id="metadata13"><rdf:RDF><cc:Work
       rdf:about=""><dc:format>image/svg+xml</dc:format><dc:type
         rdf:resource="http://purl.org/dc/dcmitype/StillImage" /></cc:Work></rdf:RDF></metadata><defs
   id="defs11" /><sodipodi:namedview
   pagecolor="#ffffff"
   bordercolor="#666666"
   borderopacity="1"
   objecttolerance="10"
   gridtolerance="10"
   guidetolerance="10"
   inkscape:pageopacity="0"
   inkscape:pageshadow="2"
   inkscape:window-width="1191"
   inkscape:window-height="1048"
   id="namedview9"
   showgrid="false"
   inkscape:zoom="34.625"
   inkscape:cx="9.9329954"
   inkscape:cy="8.3107392"
   inkscape:window-x="0"
   inkscape:window-y="0"
   inkscape:window-maximized="0"
   inkscape:current-layer="Capa_1" />
<g
   id="g3"
   transform="matrix(0.11333768,0,0,0.11333768,-4.2364083,-0.16458663)">
	<path
   d="m 153.34,78.621 c -0.326,-0.163 -0.652,-0.245 -0.979,-0.245 -0.707,0 -1.33,0.271 -1.873,0.815 l -5.215,5.214 c -0.488,0.489 -0.733,1.086 -0.733,1.792 v 20.693 c 0,3.586 -1.274,6.654 -3.828,9.207 -2.553,2.553 -5.622,3.829 -9.207,3.829 H 63.719 c -3.585,0 -6.654,-1.276 -9.207,-3.829 -2.553,-2.553 -3.829,-5.621 -3.829,-9.207 V 39.106 c 0,-3.585 1.276,-6.654 3.829,-9.207 2.553,-2.553 5.622,-3.829 9.207,-3.829 h 67.787 c 1.195,0 2.417,0.163 3.666,0.489 0.326,0.108 0.57,0.163 0.732,0.163 0.707,0 1.332,-0.271 1.875,-0.814 l 3.992,-3.992 c 0.651,-0.651 0.896,-1.439 0.732,-2.362 -0.163,-0.869 -0.652,-1.494 -1.467,-1.874 -2.932,-1.356 -6.11,-2.037 -9.532,-2.037 H 63.719 c -6.463,0 -11.99,2.295 -16.58,6.885 -4.589,4.59 -6.884,10.116 -6.884,16.58 v 67.786 c 0,6.463 2.295,11.989 6.884,16.579 4.59,4.591 10.117,6.886 16.58,6.886 h 67.786 c 6.463,0 11.99,-2.295 16.58,-6.886 4.59,-4.59 6.886,-10.116 6.886,-16.579 v -25.91 c 0,-1.14 -0.545,-1.927 -1.631,-2.363 z"
   id="path5"
   inkscape:connector-curvature="0" />
	<path
   d="m 173.791,31.856 -8.963,-8.963 c -1.303,-1.303 -2.852,-1.955 -4.645,-1.955 -1.791,0 -3.341,0.652 -4.644,1.955 L 102.825,75.607 81.399,54.179 c -1.304,-1.304 -2.852,-1.955 -4.644,-1.955 -1.792,0 -3.34,0.651 -4.644,1.955 l -8.962,8.962 c -1.304,1.304 -1.956,2.852 -1.956,4.645 0,1.792 0.652,3.34 1.956,4.644 l 35.033,35.033 c 1.304,1.305 2.852,1.956 4.644,1.956 1.792,0 3.34,-0.651 4.644,-1.956 l 66.32,-66.319 c 1.303,-1.303 1.956,-2.852 1.956,-4.644 0,-1.792 -0.652,-3.341 -1.955,-4.644 z"
   id="path7"
   inkscape:connector-curvature="0" />
</g>
</svg>