<?xml version="1.0" encoding="UTF-8" standalone="no"?>
<!-- Generator: Adobe Illustrator 16.0.0, SVG Export Plug-In . SVG Version: 6.00 Build 0)  -->

<svg
   xmlns:dc="http://purl.org/dc/elements/1.1/"
   xmlns:cc="http://creativecommons.org/ns#"
   xmlns:rdf="http://www.w3.org/1999/02/22-rdf-syntax-ns#"
   xmlns:svg="http://www.w3.org/2000/svg"
   xmlns="http://www.w3.org/2000/svg"
   xmlns:sodipodi="http://sodipodi.sourceforge.net/DTD/sodipodi-0.dtd"
   xmlns:inkscape="http://www.inkscape.org/namespaces/inkscape"
   version="1.1"
   id="Layer_1"
   x="0px"
   y="0px"
   width="16"
   height="16"
   viewBox="0 0 16 16"
   enable-background="new 0 0 512 512"
   xml:space="preserve"
   inkscape:version="0.48.2 r9819"
   sodipodi:docname="calendar68.svg" preserveAspectRatio="xMinYMid meet"><metadata
   id="metadata9"><rdf:RDF><cc:Work
       rdf:about=""><dc:format>image/svg+xml</dc:format><dc:type
         rdf:resource="http://purl.org/dc/dcmitype/StillImage" /></cc:Work></rdf:RDF></metadata><defs
   id="defs7" /><sodipodi:namedview
   pagecolor="#ffffff"
   bordercolor="#666666"
   borderopacity="1"
   objecttolerance="10"
   gridtolerance="10"
   guidetolerance="10"
   inkscape:pageopacity="0"
   inkscape:pageshadow="2"
   inkscape:window-width="949"
   inkscape:window-height="834"
   id="namedview5"
   showgrid="false"
   inkscape:zoom="31.423382"
   inkscape:cx="7.8126535"
   inkscape:cy="7.7967419"
   inkscape:window-x="0"
   inkscape:window-y="0"
   inkscape:window-maximized="0"
   inkscape:current-layer="Layer_1" />
<path
   d="M 2.3032212,2.7127207 V 0.79138084 c 0,-0.26550512 0.2148299,-0.48033491 0.480335,-0.48033491 0.2655051,0 0.4803348,0.21482979 0.4803348,0.48033491 V 2.7127207 c 0,0.2655053 -0.2148297,0.480335 -0.4803348,0.480335 -0.2655051,0 -0.480335,-0.2148297 -0.480335,-0.480335 z m 8.1656948,0.480335 c 0.265505,0 0.480335,-0.2148297 0.480335,-0.480335 V 0.79138084 c 0,-0.26550512 -0.21483,-0.48033491 -0.480335,-0.48033491 -0.265505,0 -0.4803349,0.21482979 -0.4803349,0.48033491 V 2.7127207 c 0,0.2655053 0.2148299,0.480335 0.4803349,0.480335 z m 5.283685,8.6460303 c 0,2.12212 -1.72059,3.84268 -3.842681,3.84268 -2.1220889,0 -3.8426789,-1.72059 -3.8426789,-3.84268 0,-2.1220904 1.72059,-3.8426803 3.8426789,-3.8426803 2.122091,0 3.842681,1.7205899 3.842681,3.8426803 z m -0.96067,0 c 0,-1.589248 -1.292792,-2.8820103 -2.882011,-2.8820103 -1.589217,0 -2.882009,1.2927913 -2.882009,2.8820103 0,1.589218 1.292792,2.88201 2.882009,2.88201 1.589219,0 2.882011,-1.292761 2.882011,-2.88201 z M 4.2245612,6.0750657 h -1.92134 v 1.92134 h 1.92134 v -1.92134 z m -1.92134,4.8033503 h 1.92134 V 8.9570757 h -1.92134 v 1.9213403 z m 2.88201,-2.8820103 h 1.9213399 v -1.92134 H 5.1852312 v 1.92134 z m 0,2.8820103 H 7.1065711 V 8.9570757 H 5.1852312 v 1.9213403 z m -3.84268,0.864994 V 5.1143957 H 11.90992 v 1.9213401 h 0.960671 V 3.2887626 c 0,-0.583547 -0.465325,-1.0563767 -1.040406,-1.0563767 h -0.400599 v 0.4803348 c 0,0.5291191 -0.43062,0.9606702 -0.96067,0.9606702 -0.5300497,0 -0.9606699,-0.4315511 -0.9606699,-0.9606702 V 2.2323859 H 3.7442262 v 0.4803348 c 0,0.5291191 -0.4306203,0.9606702 -0.96067,0.9606702 -0.5300497,0 -0.96067,-0.4315511 -0.96067,-0.9606702 V 2.2323859 h -0.400119 c -0.5750811,0 -1.04088596,0.4728297 -1.04088596,1.0563767 V 11.74341 c 0,0.581655 0.46580486,1.056346 1.04088596,1.056346 h 5.6838039 v -0.96067 H 1.4227672 c -0.043621,0 -0.080216,-0.04503 -0.080216,-0.09567 z M 9.9885811,7.9964057 v -1.92134 h -1.92134 v 1.92134 h 1.92134 z M 13.350926,11.839086 H 11.90992 v -1.441005 c 0,-0.265505 -0.214829,-0.4803354 -0.480334,-0.4803354 -0.265505,0 -0.480335,0.2148304 -0.480335,0.4803354 v 1.92134 c 0,0.265505 0.21483,0.480335 0.480335,0.480335 h 1.92134 c 0.265505,0 0.480335,-0.21483 0.480335,-0.480335 0,-0.265505 -0.21483,-0.480335 -0.480335,-0.480335 z"
   id="path3"
   inkscape:connector-curvature="0" />
</svg>