<?xml version="1.0" encoding="UTF-8" standalone="no"?>
<!-- Generator: Adobe Illustrator 16.0.0, SVG Export Plug-In . SVG Version: 6.00 Build 0)  -->

<svg
   xmlns:dc="http://purl.org/dc/elements/1.1/"
   xmlns:cc="http://creativecommons.org/ns#"
   xmlns:rdf="http://www.w3.org/1999/02/22-rdf-syntax-ns#"
   xmlns:svg="http://www.w3.org/2000/svg"
   xmlns="http://www.w3.org/2000/svg"
   xmlns:sodipodi="http://sodipodi.sourceforge.net/DTD/sodipodi-0.dtd"
   xmlns:inkscape="http://www.inkscape.org/namespaces/inkscape"
   version="1.1"
   id="Capa_1"
   x="0px"
   y="0px"
   width="16"
   height="16"
   viewBox="0 0 16 16"
   xml:space="preserve"
   inkscape:version="0.48.2 r9819"
   sodipodi:docname="clock4.svg"><metadata
   id="metadata43"><rdf:RDF><cc:Work
       rdf:about=""><dc:format>image/svg+xml</dc:format><dc:type
         rdf:resource="http://purl.org/dc/dcmitype/StillImage" /></cc:Work></rdf:RDF></metadata><defs
   id="defs41" /><sodipodi:namedview
   pagecolor="#ffffff"
   bordercolor="#666666"
   borderopacity="1"
   objecttolerance="10"
   gridtolerance="10"
   guidetolerance="10"
   inkscape:pageopacity="0"
   inkscape:pageshadow="2"
   inkscape:window-width="990"
   inkscape:window-height="864"
   id="namedview39"
   showgrid="false"
   inkscape:zoom="38.144516"
   inkscape:cx="7.7332333"
   inkscape:cy="7.484693"
   inkscape:window-x="0"
   inkscape:window-y="0"
   inkscape:window-maximized="0"
   inkscape:current-layer="Capa_1" />
<g
   id="g3"
   transform="matrix(0.51271188,0,0,0.51271188,0.26216088,0.27034724)">
	<path
   style="fill:#2d2d2d"
   d="M 15.083,0 C 6.753,0 0,6.754 0,15.084 c 0,8.331 6.753,15.084 15.083,15.084 8.331,0 15.083,-6.753 15.083,-15.084 C 30.167,6.754 23.415,0 15.083,0 z m 9.968,22.771 -1.366,-1.125 c -0.056,-0.047 -0.139,-0.038 -0.185,0.02 -0.046,0.054 -0.038,0.137 0.018,0.183 l 1.375,1.131 c -0.549,0.682 -1.165,1.306 -1.841,1.857 L 21.941,23.416 C 21.897,23.36 21.814,23.351 21.757,23.394 21.7,23.439 21.69,23.522 21.735,23.579 l 1.109,1.42 c -0.64,0.501 -1.33,0.939 -2.061,1.312 L 19.95,24.736 c -0.033,-0.065 -0.112,-0.089 -0.176,-0.056 -0.064,0.032 -0.088,0.113 -0.054,0.177 l 0.83,1.572 c -0.799,0.385 -1.641,0.695 -2.522,0.906 l -0.337,-1.886 c -0.013,-0.072 -0.081,-0.117 -0.151,-0.108 -0.072,0.016 -0.119,0.082 -0.106,0.153 l 0.338,1.89 c -0.666,0.146 -1.346,0.247 -2.047,0.282 v -2.249 c 0,-0.353 -0.286,-0.641 -0.639,-0.641 -0.354,0 -0.641,0.288 -0.641,0.641 v 2.249 C 13.861,27.637 13.291,27.557 12.73,27.45 l 0.283,-1.585 c 0.013,-0.071 -0.035,-0.14 -0.106,-0.15 -0.07,-0.012 -0.139,0.033 -0.152,0.104 l -0.282,1.58 C 11.612,27.217 10.782,26.956 9.997,26.61 l 0.729,-1.383 c 0.034,-0.064 0.009,-0.144 -0.055,-0.178 -0.063,-0.031 -0.143,-0.007 -0.177,0.057 L 9.759,26.499 C 9.023,26.157 8.331,25.741 7.681,25.27 l 1.03,-1.318 C 8.755,23.894 8.745,23.812 8.689,23.767 8.631,23.722 8.549,23.734 8.504,23.789 L 7.473,25.11 C 6.782,24.585 6.143,23.991 5.574,23.335 L 6.928,22.222 C 6.983,22.177 6.992,22.094 6.946,22.036 6.9,21.982 6.817,21.973 6.761,22.017 L 5.399,23.141 C 4.847,22.477 4.37,21.749 3.962,20.981 L 5.557,20.143 C 5.621,20.11 5.646,20.03 5.612,19.967 5.578,19.901 5.5,19.879 5.436,19.91 L 3.844,20.746 C 3.421,19.906 3.077,19.018 2.849,18.084 L 4.695,17.739 C 4.766,17.726 4.812,17.656 4.799,17.587 4.785,17.515 4.718,17.47 4.646,17.483 L 2.798,17.828 C 2.647,17.146 2.541,16.447 2.505,15.727 h 2.148 c 0.354,0 0.64,-0.286 0.64,-0.641 0,-0.354 -0.287,-0.641 -0.64,-0.641 h -2.15 c 0.036,-0.691 0.136,-1.365 0.278,-2.022 0.008,10e-4 0.012,0.011 0.021,0.011 l 2.058,0.387 c 0.008,0.002 0.017,0.002 0.024,0.002 0.062,0 0.116,-0.045 0.129,-0.107 0.013,-0.071 -0.034,-0.14 -0.104,-0.153 L 2.85,12.176 C 2.843,12.174 2.835,12.18 2.828,12.18 3.055,11.217 3.4,10.3 3.834,9.436 l 1.814,0.951 c 0.019,0.012 0.04,0.018 0.06,0.018 0.047,0 0.093,-0.026 0.116,-0.069 0.035,-0.066 0.01,-0.144 -0.055,-0.177 L 3.953,9.202 C 4.369,8.418 4.854,7.677 5.42,7.001 L 6.974,8.282 C 7,8.301 7.028,8.311 7.058,8.311 7.096,8.311 7.133,8.295 7.159,8.264 7.204,8.207 7.197,8.124 7.141,8.08 L 5.597,6.809 C 6.18,6.142 6.833,5.538 7.543,5.007 L 8.72,6.511 c 0.025,0.034 0.064,0.051 0.103,0.051 0.028,0 0.056,-0.01 0.08,-0.028 C 8.959,6.488 8.97,6.407 8.926,6.351 L 7.752,4.849 C 8.415,4.371 9.123,3.953 9.874,3.613 l 0.835,1.581 c 0.024,0.047 0.069,0.071 0.116,0.071 0.021,0 0.042,-0.006 0.062,-0.017 0.063,-0.032 0.088,-0.111 0.054,-0.177 L 10.117,3.512 C 10.923,3.165 11.773,2.907 12.658,2.733 L 12.97,4.48 c 0.011,0.063 0.066,0.108 0.128,0.108 0.008,0 0.016,0 0.024,-0.002 0.072,-0.014 0.118,-0.083 0.105,-0.151 L 12.915,2.684 c 0.503,-0.087 1.013,-0.155 1.535,-0.182 0,0.011 -0.006,0.019 -0.006,0.027 v 2.347 c 0,0.354 0.288,0.641 0.641,0.641 0.353,0 0.639,-0.286 0.639,-0.641 V 2.53 c 0,-0.009 -0.004,-0.017 -0.004,-0.027 0.708,0.035 1.397,0.139 2.069,0.286 l -0.356,1.993 c -0.013,0.072 0.034,0.14 0.106,0.153 0.008,0.002 0.015,0.002 0.022,0.002 0.062,0 0.118,-0.046 0.129,-0.107 l 0.356,-1.992 c 0.893,0.215 1.742,0.533 2.548,0.925 l -0.875,1.658 c -0.034,0.064 -0.01,0.145 0.054,0.178 0.02,0.01 0.041,0.015 0.061,0.015 0.047,0 0.092,-0.025 0.115,-0.071 l 0.877,-1.659 c 0.735,0.377 1.427,0.82 2.068,1.33 L 21.732,6.7 c -0.045,0.057 -0.035,0.138 0.022,0.183 0.026,0.017 0.054,0.027 0.082,0.027 0.039,0 0.077,-0.019 0.104,-0.051 L 23.104,5.37 c 0.678,0.56 1.292,1.194 1.838,1.885 l -1.425,1.173 c -0.055,0.045 -0.063,0.128 -0.018,0.184 0.026,0.033 0.064,0.048 0.101,0.048 0.03,0 0.059,-0.009 0.084,-0.03 l 1.417,-1.167 c 0.524,0.69 0.981,1.432 1.356,2.219 l -1.569,0.825 c -0.063,0.031 -0.089,0.113 -0.055,0.176 0.023,0.045 0.069,0.071 0.116,0.071 0.021,0 0.041,-0.006 0.061,-0.015 l 1.564,-0.822 c 0.382,0.846 0.66,1.747 0.846,2.68 l -1.67,0.313 c -0.071,0.013 -0.117,0.083 -0.104,0.152 0.013,0.062 0.067,0.107 0.128,0.107 0.01,0 0.017,0 0.026,-0.004 l 1.671,-0.312 c 0.093,0.521 0.167,1.049 0.194,1.59 h -2.166 c -0.353,0 -0.64,0.287 -0.64,0.641 0,0.354 0.287,0.641 0.64,0.641 h 2.166 c -0.028,0.577 -0.11,1.14 -0.213,1.693 L 25.8,17.107 c -0.07,-0.011 -0.14,0.036 -0.154,0.106 -0.013,0.069 0.034,0.139 0.104,0.152 l 1.651,0.309 c -0.196,0.93 -0.482,1.822 -0.868,2.663 L 25.01,19.538 c -0.063,-0.034 -0.144,-0.01 -0.177,0.054 -0.034,0.064 -0.008,0.144 0.055,0.176 l 1.526,0.801 c -0.378,0.785 -0.837,1.52 -1.363,2.202 z"
   id="path5"
   inkscape:connector-curvature="0" />
	<path
   style="fill:#2d2d2d"
   d="m 23.304,14.443 h -7.179 c -0.219,-0.355 -0.594,-0.605 -1.042,-0.605 -0.146,0 -0.281,0.037 -0.411,0.085 L 9.704,8.955 c -0.25,-0.251 -0.655,-0.251 -0.905,0 -0.251,0.25 -0.251,0.655 0,0.904 l 5.071,5.072 c -0.007,0.054 -0.03,0.1 -0.03,0.152 0,0.388 0.182,0.729 0.459,0.959 l -3.529,6.264 0.371,0.209 3.529,-6.264 c 0.13,0.046 0.268,0.076 0.414,0.076 0.448,0 0.822,-0.249 1.042,-0.604 h 7.179 c 0.353,0 0.64,-0.286 0.64,-0.641 -0.001,-0.352 -0.288,-0.639 -0.641,-0.639 z"
   id="path7"
   inkscape:connector-curvature="0" />
</g>
<g
   id="g9"
   transform="translate(0,-14.168)">
</g>
<g
   id="g11"
   transform="translate(0,-14.168)">
</g>
<g
   id="g13"
   transform="translate(0,-14.168)">
</g>
<g
   id="g15"
   transform="translate(0,-14.168)">
</g>
<g
   id="g17"
   transform="translate(0,-14.168)">
</g>
<g
   id="g19"
   transform="translate(0,-14.168)">
</g>
<g
   id="g21"
   transform="translate(0,-14.168)">
</g>
<g
   id="g23"
   transform="translate(0,-14.168)">
</g>
<g
   id="g25"
   transform="translate(0,-14.168)">
</g>
<g
   id="g27"
   transform="translate(0,-14.168)">
</g>
<g
   id="g29"
   transform="translate(0,-14.168)">
</g>
<g
   id="g31"
   transform="translate(0,-14.168)">
</g>
<g
   id="g33"
   transform="translate(0,-14.168)">
</g>
<g
   id="g35"
   transform="translate(0,-14.168)">
</g>
<g
   id="g37"
   transform="translate(0,-14.168)">
</g>
</svg>