<?xml version="1.0" encoding="UTF-8" standalone="no"?>
<!-- Generator: IcoMoon.io -->

<svg
   xmlns:dc="http://purl.org/dc/elements/1.1/"
   xmlns:cc="http://creativecommons.org/ns#"
   xmlns:rdf="http://www.w3.org/1999/02/22-rdf-syntax-ns#"
   xmlns:svg="http://www.w3.org/2000/svg"
   xmlns="http://www.w3.org/2000/svg"
   xmlns:sodipodi="http://sodipodi.sourceforge.net/DTD/sodipodi-0.dtd"
   xmlns:inkscape="http://www.inkscape.org/namespaces/inkscape"
   version="1.1"
   id="Layer_1"
   x="0px"
   y="0px"
   width="16"
   height="16"
   viewBox="0 0 16 16"
   enable-background="new 0 0 16 16"
   xml:space="preserve"
   inkscape:version="0.48.2 r9819"
   sodipodi:docname="icon.svg"
   style="fill:#000000" preserveAspectRatio="xMinYMid meet"><metadata
   id="metadata9"><rdf:RDF><cc:Work
       rdf:about=""><dc:format>image/svg+xml</dc:format><dc:type
         rdf:resource="http://purl.org/dc/dcmitype/StillImage" /></cc:Work></rdf:RDF></metadata><defs
   id="defs7" /><sodipodi:namedview
   pagecolor="#ffffff"
   bordercolor="#666666"
   borderopacity="1"
   objecttolerance="10"
   gridtolerance="10"
   guidetolerance="10"
   inkscape:pageopacity="0"
   inkscape:pageshadow="2"
   inkscape:window-width="1325"
   inkscape:window-height="847"
   id="namedview5"
   showgrid="false"
   inkscape:zoom="41.985746"
   inkscape:cx="7.336356"
   inkscape:cy="7.8898305"
   inkscape:window-x="471"
   inkscape:window-y="0"
   inkscape:window-maximized="0"
   inkscape:current-layer="Layer_1" /> <path
   d="m 12.827683,15.838983 -9.6610163,0 c -1.6008305,0 -2.89830512,-1.298441 -2.89830512,-2.898305 l 0,-9.6610169 c 0,-1.6008305 1.29747462,-2.89830517 2.89830512,-2.89830517 l 9.6610163,0 c 1.599864,0 2.898305,1.29747467 2.898305,2.89830517 l 0,9.6610169 c 0,1.599864 -1.298441,2.898305 -2.898305,2.898305 z"
   id="path2992" /><path
   id="path3762"
   d="m 12.090825,14.755283 -8.187301,0 c -1.356636,0 -2.4561907,-1.11638 -2.4561907,-2.491918 l 0,-8.306391 c 0,-1.3763689 1.0995547,-2.4919172 2.4561907,-2.4919172 l 8.187301,0 c 1.355818,0 2.456191,1.1155483 2.456191,2.4919172 l 0,8.306391 c 0,1.375538 -1.100373,2.491918 -2.456191,2.491918 z"
   inkscape:connector-curvature="0"
   style="fill:#ffffff;fill-opacity:1" /><path
   d="m 5.0988701,5.2118645 -0.9661017,0 0,-0.9661017 0.9661017,0 5.7966099,0 0.966101,0 0,0.9661017 -0.966101,0 z"
   id="path2988"
   style="fill:#1b1b1b;fill-opacity:1" /><path
   d="m 9.9293784,6.1779662 0,0.9661016 -3.8644066,0 0,-0.9661016 z"
   id="path2986"
   style="fill:#1b1b1b;fill-opacity:1" /><path
   d="m 9.9615784,9.0762712 -5.79661,0 0,-0.9661017 5.79661,0 z"
   id="path2984"
   style="fill:#1b1b1b;fill-opacity:1" /><path
   d="m 11.861578,11.008475 -5.9576266,0 0,-0.966102 5.9576266,0 z"
   id="path3"
   style="fill:#1b1b1b;fill-opacity:1" /></svg>