<?xml version="1.0" encoding="UTF-8" standalone="no"?>
<svg
   xmlns:dc="http://purl.org/dc/elements/1.1/"
   xmlns:cc="http://creativecommons.org/ns#"
   xmlns:rdf="http://www.w3.org/1999/02/22-rdf-syntax-ns#"
   xmlns:svg="http://www.w3.org/2000/svg"
   xmlns="http://www.w3.org/2000/svg"
   xmlns:sodipodi="http://sodipodi.sourceforge.net/DTD/sodipodi-0.dtd"
   xmlns:inkscape="http://www.inkscape.org/namespaces/inkscape"
   width="16"
   height="16"
   enable-background="new 0 0 16 16"
   id="svg2"
   version="1.1"
   inkscape:version="0.48.2 r9819"
   sodipodi:docname="ripped.svg">
  <metadata
     id="metadata10">
    <rdf:RDF>
      <cc:Work
         rdf:about="">
        <dc:format>image/svg+xml</dc:format>
        <dc:type
           rdf:resource="http://purl.org/dc/dcmitype/StillImage" />
      </cc:Work>
    </rdf:RDF>
  </metadata>
  <defs
     id="defs8" />
  <sodipodi:namedview
     pagecolor="#ffffff"
     bordercolor="#666666"
     borderopacity="1"
     objecttolerance="10"
     gridtolerance="10"
     guidetolerance="10"
     inkscape:pageopacity="0"
     inkscape:pageshadow="2"
     inkscape:window-width="973"
     inkscape:window-height="849"
     id="namedview6"
     showgrid="false"
     inkscape:zoom="40.625"
     inkscape:cx="8"
     inkscape:cy="8"
     inkscape:window-x="0"
     inkscape:window-y="0"
     inkscape:window-maximized="0"
     inkscape:current-layer="svg2" />
  <path
     d="M 15.797201,15.852308 13.850243,13.90535 11.903285,15.852308 9.9563279,13.90535 8.00937,15.852308 6.0624121,13.90535 4.1154543,15.852308 2.1684964,13.90535 l -1.94695794,1.946958 0,-12.6552265 c 0,-1.6130546 1.30738224,-2.92043684 2.92043684,-2.92043684 l 9.7347887,0 c 1.612081,0 2.920437,1.30738224 2.920437,2.92043684 z M 14.85,13.54 l 0,-10.3429185 c 0,-0.5373604 -0.524134,-1.9733394 -1.973236,-1.9732802 L 3.1419753,1.2241987 C 1.9646149,1.2242468 1.1072147,2.6631294 1.168,3.1970407 l 0,10.3429593 1,-1.154 1.9474543,1.846 1.9469578,-1.8465 1.9469579,1.8465 1.9469579,-1.8465 1.9469571,1.8465 1.839023,-1.846 z M 4.1154543,8.0644762 l 7.7878307,0 0,0.9734789 -7.7878307,0 z m 0,-1.9469579 7.7878307,0 0,0.9734789 -7.7878307,0 z m 0,-1.9469579 7.7878307,0 0,0.973479 -7.7878307,0 z"
     id="path4"
     inkscape:connector-curvature="0"
     sodipodi:nodetypes="cccccccccssssccsssscccccccccccccccccccccccc" />
</svg>
