<?xml version="1.0" encoding="UTF-8" standalone="no"?>
<svg
   xmlns:dc="http://purl.org/dc/elements/1.1/"
   xmlns:cc="http://creativecommons.org/ns#"
   xmlns:rdf="http://www.w3.org/1999/02/22-rdf-syntax-ns#"
   xmlns:svg="http://www.w3.org/2000/svg"
   xmlns="http://www.w3.org/2000/svg"
   xmlns:sodipodi="http://sodipodi.sourceforge.net/DTD/sodipodi-0.dtd"
   xmlns:inkscape="http://www.inkscape.org/namespaces/inkscape"
   version="1.1"
   id="Capa_1"
   x="0px"
   y="0px"
   viewBox="0 0 25.708 25.708"
   style="enable-background:new 0 0 25.708 25.708;"
   xml:space="preserve"
   sodipodi:docname="icon.svg"
   inkscape:version="0.92.2 5c3e80d, 2017-08-06"><metadata
     id="metadata77"><rdf:RDF><cc:Work
         rdf:about=""><dc:format>image/svg+xml</dc:format><dc:type
           rdf:resource="http://purl.org/dc/dcmitype/StillImage" /></cc:Work></rdf:RDF></metadata><defs
     id="defs75" /><sodipodi:namedview
     pagecolor="#ffffff"
     bordercolor="#666666"
     borderopacity="1"
     objecttolerance="10"
     gridtolerance="10"
     guidetolerance="10"
     inkscape:pageopacity="0"
     inkscape:pageshadow="2"
     inkscape:window-width="1592"
     inkscape:window-height="1195"
     id="namedview73"
     showgrid="false"
     inkscape:zoom="9.1800217"
     inkscape:cx="12.854"
     inkscape:cy="11.982542"
     inkscape:window-x="0"
     inkscape:window-y="0"
     inkscape:window-maximized="0"
     inkscape:current-layer="Capa_1" /><g
     id="g40"
     transform="matrix(-1,0,0,1,25.708168,0)"><path
       d="m 23.354,7.23 c 0,0 -1.439,-1.239 -2.652,-0.548 -0.934,0.537 -6.867,3.514 -9.514,4.84 L 7.44,9.379 C 7.847,8.658 7.915,7.824 7.696,7.02 7.419,6.004 6.686,5.041 5.604,4.422 3.659,3.307 1.321,3.731 0.388,5.369 -0.028,6.092 -0.096,6.932 0.122,7.742 c 0.277,1.016 1.01,1.98 2.092,2.602 0.478,0.27 0.976,0.449 1.471,0.541 v 10e-4 c 0.004,0.001 0.008,0.001 0.012,0.003 0.039,0.006 0.084,0.015 0.127,0.02 3.086,0.459 4.664,1.33 5.43,1.944 -0.766,0.616 -2.344,1.485 -5.43,1.945 -0.043,0.005 -0.088,0.013 -0.127,0.019 -0.004,0.002 -0.008,0.002 -0.012,0.004 v 0 c -0.494,0.092 -0.992,0.271 -1.471,0.542 -1.082,0.622 -1.814,1.585 -2.092,2.602 -0.219,0.808 -0.15,1.648 0.266,2.375 0.934,1.635 3.271,2.061 5.217,0.946 1.082,-0.621 1.814,-1.584 2.092,-2.602 0.219,-0.803 0.15,-1.635 -0.256,-2.357 l 3.748,-2.142 c 2.646,1.325 8.58,4.305 9.514,4.839 1.213,0.691 2.652,-0.547 2.652,-0.547 L 13.517,12.853 Z M 5.843,8.487 C 5.417,9.229 4.173,9.35 3.126,8.751 2.511,8.401 2.048,7.843 1.89,7.263 1.821,7.004 1.776,6.625 1.978,6.278 2.402,5.537 3.646,5.416 4.693,6.014 5.318,6.369 5.767,6.912 5.927,7.502 5.999,7.758 6.04,8.139 5.843,8.487 Z m 0.084,9.716 C 5.767,18.794 5.318,19.336 4.693,19.692 3.646,20.292 2.402,20.17 1.978,19.427 1.777,19.079 1.822,18.701 1.89,18.445 c 0.158,-0.582 0.621,-1.14 1.236,-1.492 1.047,-0.598 2.291,-0.477 2.717,0.266 0.197,0.35 0.156,0.728 0.084,0.984 z"
       id="path2"
       inkscape:connector-curvature="0" /><rect
       x="15.864"
       y="12.367"
       width="2.4100001"
       height="0.99199998"
       id="rect4" /><rect
       x="19.478001"
       y="12.367"
       width="2.408"
       height="0.99199998"
       id="rect6" /><rect
       x="23.302"
       y="12.357"
       width="2.4059999"
       height="0.991"
       id="rect8" /><g
       id="g10" /><g
       id="g12" /><g
       id="g14" /><g
       id="g16" /><g
       id="g18" /><g
       id="g20" /><g
       id="g22" /><g
       id="g24" /><g
       id="g26" /><g
       id="g28" /><g
       id="g30" /><g
       id="g32" /><g
       id="g34" /><g
       id="g36" /><g
       id="g38" /></g><g
     id="g42"
     transform="matrix(-1,0,0,1,25.708168,0)" /><g
     id="g44"
     transform="matrix(-1,0,0,1,25.708168,0)" /><g
     id="g46"
     transform="matrix(-1,0,0,1,25.708168,0)" /><g
     id="g48"
     transform="matrix(-1,0,0,1,25.708168,0)" /><g
     id="g50"
     transform="matrix(-1,0,0,1,25.708168,0)" /><g
     id="g52"
     transform="matrix(-1,0,0,1,25.708168,0)" /><g
     id="g54"
     transform="matrix(-1,0,0,1,25.708168,0)" /><g
     id="g56"
     transform="matrix(-1,0,0,1,25.708168,0)" /><g
     id="g58"
     transform="matrix(-1,0,0,1,25.708168,0)" /><g
     id="g60"
     transform="matrix(-1,0,0,1,25.708168,0)" /><g
     id="g62"
     transform="matrix(-1,0,0,1,25.708168,0)" /><g
     id="g64"
     transform="matrix(-1,0,0,1,25.708168,0)" /><g
     id="g66"
     transform="matrix(-1,0,0,1,25.708168,0)" /><g
     id="g68"
     transform="matrix(-1,0,0,1,25.708168,0)" /><g
     id="g70"
     transform="matrix(-1,0,0,1,25.708168,0)" /></svg>