<?xml version="1.0" encoding="UTF-8" standalone="no"?>
<!-- Generator: Adobe Illustrator 16.0.0, SVG Export Plug-In . SVG Version: 6.00 Build 0)  -->

<svg
   xmlns:dc="http://purl.org/dc/elements/1.1/"
   xmlns:cc="http://creativecommons.org/ns#"
   xmlns:rdf="http://www.w3.org/1999/02/22-rdf-syntax-ns#"
   xmlns:svg="http://www.w3.org/2000/svg"
   xmlns="http://www.w3.org/2000/svg"
   xmlns:sodipodi="http://sodipodi.sourceforge.net/DTD/sodipodi-0.dtd"
   xmlns:inkscape="http://www.inkscape.org/namespaces/inkscape"
   version="1.1"
   id="Layer_12"
   x="0px"
   y="0px"
   width="16"
   height="16"
   viewBox="0 0 16 16"
   enable-background="new 0 0 100 100"
   xml:space="preserve"
   inkscape:version="0.48.2 r9819"
   sodipodi:docname="icon.svg"><metadata
   id="metadata9"><rdf:RDF><cc:Work
       rdf:about=""><dc:format>image/svg+xml</dc:format><dc:type
         rdf:resource="http://purl.org/dc/dcmitype/StillImage" /></cc:Work></rdf:RDF></metadata><defs
   id="defs7" /><sodipodi:namedview
   pagecolor="#ffffff"
   bordercolor="#666666"
   borderopacity="1"
   objecttolerance="10"
   gridtolerance="10"
   guidetolerance="10"
   inkscape:pageopacity="0"
   inkscape:pageshadow="2"
   inkscape:window-width="1041"
   inkscape:window-height="695"
   id="namedview5"
   showgrid="false"
   inkscape:zoom="28.808017"
   inkscape:cx="8.6864385"
   inkscape:cy="8.6864435"
   inkscape:window-x="0"
   inkscape:window-y="0"
   inkscape:window-maximized="0"
   inkscape:current-layer="Layer_12" />
<path
   d="M 15.767,8.0635028 C 15.767,3.8008067 12.299197,0.333 8.0365025,0.333 7.9482375,0.333 7.8611119,0.336751 7.7734166,0.339759 V 0.337878 c -0.02535,0 -0.049945,0.003194 -0.075305,0.003751 C 7.6586776,0.34351 7.6190566,0.345578 7.5796197,0.347829 7.4851647,0.352334 7.3910847,0.358153 7.2985064,0.3692361 3.380961,0.74198777 0.306,4.0499904 0.306,8.0634973 0.306,12.326196 3.7738044,15.794 8.0364985,15.794 c 4.2626945,0 7.7304975,-3.467804 7.7304975,-7.7305027 z M 9.0116642,4.4777679 c 0,0.5385646 -0.436786,0.9751619 -0.9751617,0.9751619 -0.5385647,0 -0.9751613,-0.4365973 -0.9751613,-0.9751619 0,-0.5385646 0.4365966,-0.9751619 0.9751613,-0.9751619 0.5383757,0 0.9751617,0.436785 0.9751617,0.9751619 z m 2.3195078,7.2818851 c 0,1.887792 -1.5956014,3.423491 -3.5568159,3.423491 v 0.0062 C 3.9625319,15.05109 0.90372021,11.908716 0.90372021,8.0634616 c 0,-3.130359 2.02806639,-5.7944501 4.83881499,-6.7521483 -1.0476471,0.679027 -1.7446996,1.8611267 -1.7446996,3.2058476 0,2.0988616 1.6932461,3.8065693 3.7767085,3.8129539 v 0.00601 c 1.9612143,0 3.5566279,1.5356972 3.5566279,3.4234872 z m -3.2946695,1.096099 c -0.5385647,0 -0.9751613,-0.436599 -0.9751613,-0.975167 0,-0.538563 0.4365966,-0.975161 0.9751613,-0.975161 0.5383757,0 0.9751617,0.436598 0.9751617,0.975161 0,0.538568 -0.436786,0.975167 -0.9751617,0.975167 z"
   id="path3"
   inkscape:connector-curvature="0" />
</svg>