<?xml version="1.0" encoding="UTF-8" standalone="no"?>
<!-- Generator: Adobe Illustrator 17.0.0, SVG Export Plug-In . SVG Version: 6.00 Build 0)  -->

<svg
   xmlns:dc="http://purl.org/dc/elements/1.1/"
   xmlns:cc="http://creativecommons.org/ns#"
   xmlns:rdf="http://www.w3.org/1999/02/22-rdf-syntax-ns#"
   xmlns:svg="http://www.w3.org/2000/svg"
   xmlns="http://www.w3.org/2000/svg"
   xmlns:sodipodi="http://sodipodi.sourceforge.net/DTD/sodipodi-0.dtd"
   xmlns:inkscape="http://www.inkscape.org/namespaces/inkscape"
   version="1.1"
   id="Capa_1"
   x="0px"
   y="0px"
   width="16"
   height="16"
   viewBox="0 0 16 16"
   enable-background="new 0 0 52 52"
   xml:space="preserve"
   inkscape:version="0.48.2 r9819"
   sodipodi:docname="icon.svg"><metadata
   id="metadata13"><rdf:RDF><cc:Work
       rdf:about=""><dc:format>image/svg+xml</dc:format><dc:type
         rdf:resource="http://purl.org/dc/dcmitype/StillImage" /></cc:Work></rdf:RDF></metadata><defs
   id="defs11">
	
	
</defs><sodipodi:namedview
   pagecolor="#ffffff"
   bordercolor="#666666"
   borderopacity="1"
   objecttolerance="10"
   gridtolerance="10"
   guidetolerance="10"
   inkscape:pageopacity="0"
   inkscape:pageshadow="2"
   inkscape:window-width="961"
   inkscape:window-height="644"
   id="namedview9"
   showgrid="false"
   inkscape:zoom="12.795459"
   inkscape:cx="17.084298"
   inkscape:cy="15.736285"
   inkscape:window-x="480"
   inkscape:window-y="376"
   inkscape:window-maximized="0"
   inkscape:current-layer="Capa_1" />
<g
   id="g2992"
   transform="matrix(1.3054638,0.82777125,-0.82777125,1.3054638,-32.337905,-6.3352816)"><path
     d="m 28.256896,-11.128382 c -2.720817,-0.672659 -5.481738,0.993485 -6.154604,3.714302 -0.672865,2.720817 0.993279,5.481738 3.713889,6.154397 2.720817,0.672866 5.481738,-0.993485 6.154397,-3.714302 0.672866,-2.720818 -0.993072,-5.481531 -3.713682,-6.154397 z m 2.122163,7.435632 c -0.007,0.0081 -0.01468,0.01654 -0.02171,0.02481 0.007,-0.0081 0.01468,-0.01695 0.02171,-0.02481 1.38046,-1.583043 0.635656,-3.698591 0.37974,-4.282982 -0.681755,-1.554723 -1.817461,-1.980561 -2.426245,-2.09715 -0.253022,-0.04817 -0.415502,-0.04362 -0.415502,-0.04362 -0.119483,-0.0064 -0.232764,-0.007 -0.34005,-0.0021 -1.393484,0.06305 -1.768263,1.025732 -1.843508,1.281235 -0.01158,0.03928 -0.01612,0.06202 -0.01612,0.06202 -0.07111,0.263978 -0.101498,0.500876 -0.09984,0.714209 0.0124,1.493121 1.610331,1.82511 2.008055,2.151723 0.397725,0.326614 0.840514,0.782013 0.807646,1.582837 -0.0048,0.114522 -0.01902,0.236072 -0.04465,0.36527 -0.0079,0.03948 -0.01612,0.07793 -0.02543,0.115762 -0.0054,0.0215 -0.01158,0.04134 -0.01737,0.06222 -0.180257,0.669765 -0.522168,1.061082 -0.890746,1.284957 -0.385942,0.234624 -0.80041,0.287337 -1.087128,0.288371 -0.191627,6.2e-4 -0.3262,-0.0215 -0.357414,-0.02791 0.07773,0.01943 0.156071,0.03783 0.234417,0.05623 -0.06367,-0.01261 -0.127544,-0.02336 -0.19142,-0.03907 -0.406614,-0.100465 -0.783667,-0.259431 -1.124957,-0.464908 -1.26842,-0.762995 -2.042577,-2.173429 -1.982422,-3.671098 0.01096,-0.271627 0.0492,-0.545942 0.117002,-0.819842 0.101498,-0.410748 0.262118,-0.791729 0.470696,-1.135914 0.764442,-1.262217 2.171775,-2.03162 3.66531,-1.971879 0.271627,0.01096 0.545941,0.0492 0.819842,0.116795 0.107286,0.02667 0.210645,0.06036 0.31359,0.09468 0.608784,0.116382 1.74449,0.542427 2.426245,2.09715 0.256123,0.584391 1.00072,2.699939 -0.37974,4.282982 z M 27.42341,-8.910509 c 0.0215,4.14e-4 0.0432,0.0039 0.06491,0.0066 0.02088,0.0025 0.04196,0.0043 0.06222,0.0089 0.0037,8.27e-4 0.0076,6.2e-4 0.01137,0.0017 0.01447,0.0035 0.02708,0.01013 0.04093,0.01468 0.02191,0.007 0.04403,0.01364 0.06491,0.02315 0.0184,0.0083 0.03514,0.01861 0.0523,0.02853 0.01757,0.01013 0.03514,0.01943 0.05168,0.03121 0.01736,0.0122 0.03287,0.02625 0.04858,0.0401 0.01426,0.0124 0.02873,0.02439 0.04176,0.03804 0.01426,0.01509 0.02667,0.03142 0.03948,0.04775 0.01199,0.0153 0.02398,0.03018 0.03452,0.04651 0.01096,0.01716 0.01964,0.03514 0.02894,0.05313 0.0089,0.01757 0.0184,0.03494 0.02563,0.05333 0.0079,0.01984 0.01323,0.04031 0.01902,0.06098 0.005,0.01798 0.01075,0.03576 0.01406,0.05437 0.0043,0.02336 0.0056,0.04734 0.0072,0.07111 0.0012,0.01736 0.0033,0.03473 0.0031,0.0523 -4.13e-4,0.0215 -0.0039,0.043 -0.0064,0.0647 -0.0025,0.02088 -0.0043,0.04196 -0.0089,0.06243 -8.27e-4,0.0037 -6.2e-4,0.0076 -0.0017,0.01137 -0.0035,0.01447 -0.01013,0.02708 -0.01468,0.04093 -0.007,0.02191 -0.01364,0.04403 -0.02315,0.06491 -0.0083,0.01819 -0.0184,0.03494 -0.02832,0.05209 -0.01013,0.01757 -0.01964,0.03556 -0.03142,0.05189 -0.01199,0.01695 -0.02584,0.03225 -0.03948,0.04775 -0.01282,0.01468 -0.02501,0.02935 -0.03907,0.04279 -0.01447,0.01385 -0.03039,0.02584 -0.0461,0.03804 -0.01592,0.0124 -0.03142,0.02501 -0.04837,0.03597 -0.01633,0.01034 -0.03349,0.01881 -0.05065,0.02749 -0.0184,0.0095 -0.03638,0.01922 -0.05581,0.02687 -0.01902,0.0074 -0.03866,0.01261 -0.05829,0.01819 -0.01881,0.0054 -0.03742,0.01137 -0.05705,0.01488 -0.02274,0.0041 -0.04589,0.0054 -0.06904,0.007 -0.01798,0.0012 -0.03576,0.0035 -0.05416,0.0031 -0.02129,-4.14e-4 -0.04258,-0.0037 -0.06408,-0.0064 -0.02108,-0.0025 -0.04217,-0.0043 -0.06264,-0.0089 -0.0037,-8.26e-4 -0.0076,-6.2e-4 -0.01137,-0.0017 -0.01447,-0.0035 -0.02729,-0.01013 -0.04114,-0.01468 -0.02191,-0.007 -0.04382,-0.01364 -0.0647,-0.02315 -0.0184,-0.0083 -0.03494,-0.0186 -0.0523,-0.02832 -0.01757,-0.01013 -0.03535,-0.01964 -0.05189,-0.03121 -0.01716,-0.0122 -0.03245,-0.02605 -0.04796,-0.03969 -0.01447,-0.01261 -0.02915,-0.02481 -0.04238,-0.03866 -0.01406,-0.01468 -0.02625,-0.0308 -0.03866,-0.04693 -0.0122,-0.01571 -0.0246,-0.0308 -0.03535,-0.04754 -0.01075,-0.01674 -0.01922,-0.03431 -0.02811,-0.05189 -0.0093,-0.01798 -0.0186,-0.03556 -0.02625,-0.05457 -0.0076,-0.01943 -0.01282,-0.03969 -0.01861,-0.05974 -0.0052,-0.0184 -0.01096,-0.03638 -0.01447,-0.0554 -0.0043,-0.02315 -0.0056,-0.04692 -0.007,-0.0707 -0.0012,-0.01757 -0.0033,-0.03494 -0.0031,-0.05271 4.13e-4,-0.02171 0.0039,-0.04341 0.0066,-0.06532 0.0025,-0.02067 0.0043,-0.04155 0.0087,-0.0616 8.27e-4,-0.0039 6.2e-4,-0.0079 0.0017,-0.01178 0.0037,-0.01488 0.01033,-0.02791 0.01509,-0.04217 0.007,-0.0215 0.01344,-0.043 0.02253,-0.06325 0.0085,-0.01881 0.01902,-0.03618 0.02915,-0.05375 0.0097,-0.01695 0.01902,-0.03431 0.03018,-0.05023 0.01261,-0.01778 0.02687,-0.03349 0.04093,-0.04961 0.0122,-0.01385 0.02377,-0.02811 0.03721,-0.04093 0.0153,-0.01447 0.03184,-0.02708 0.04858,-0.0401 0.01509,-0.01178 0.02977,-0.02377 0.04589,-0.03411 0.01716,-0.01096 0.03556,-0.01985 0.05375,-0.02915 0.01757,-0.0089 0.03452,-0.01819 0.05292,-0.02543 0.01984,-0.0079 0.04072,-0.01323 0.0614,-0.01902 0.01798,-0.005 0.03555,-0.01075 0.05395,-0.01406 0.02357,-0.0043 0.04754,-0.0056 0.07152,-0.0072 0.01716,-8.27e-4 0.03431,-0.0031 0.05189,-0.0029 z"
     id="path5"
     inkscape:connector-curvature="0" /><path
     d="m 25.827344,-4.026392 c 0.0035,0.01964 0.0095,0.03866 0.01509,0.05767 0.0056,0.01943 0.01054,0.03886 0.01778,0.05747 0.0076,0.01964 0.01778,0.03845 0.02749,0.05705 0.0087,0.01674 0.01674,0.03349 0.02667,0.04941 0.01116,0.01757 0.02439,0.0339 0.03742,0.05023 0.01178,0.01509 0.02336,0.03018 0.03638,0.04424 0.01406,0.01488 0.02977,0.02791 0.04527,0.04134 0.01468,0.01282 0.02915,0.02584 0.04507,0.03721 0.01757,0.01261 0.03679,0.02295 0.05581,0.0337 0.01592,0.0089 0.03121,0.0184 0.04796,0.02605 0.02232,0.01013 0.04631,0.01757 0.07028,0.02501 0.0155,0.005 0.0308,0.01075 0.04692,0.01447 0.02294,0.0052 0.04568,0.0072 0.06842,0.0097 0.01943,0.0023 0.03866,0.0056 0.0585,0.006 0.0041,0 0.0081,0.0012 0.0122,0.0012 0.01571,0 0.03059,-0.0035 0.04589,-0.0045 0.02191,-0.0017 0.04424,-0.0027 0.06553,-0.0066 0.02005,-0.0037 0.03928,-0.0097 0.05871,-0.0153 0.01922,-0.0056 0.03866,-0.01054 0.05705,-0.01778 0.01922,-0.0076 0.03742,-0.01736 0.05581,-0.02687 0.01736,-0.0089 0.03494,-0.01736 0.05127,-0.0277 0.01654,-0.01054 0.03163,-0.02294 0.04713,-0.03493 0.01633,-0.01282 0.03287,-0.02522 0.04775,-0.03948 0.01323,-0.01261 0.02501,-0.02687 0.03721,-0.04072 0.01426,-0.01633 0.02873,-0.03245 0.04134,-0.05023 0.01075,-0.0153 0.01985,-0.03204 0.02935,-0.04858 0.01054,-0.0184 0.0215,-0.03638 0.03039,-0.05581 0.0085,-0.01902 0.01468,-0.03948 0.02129,-0.05974 0.0064,-0.01902 0.01344,-0.03783 0.01798,-0.05767 0.0043,-0.01922 0.0058,-0.03824 0.0083,-0.05747 0.0029,-0.02295 0.0066,-0.04569 0.007,-0.06946 0,-0.0035 10e-4,-0.0066 10e-4,-0.01013 0,-0.01323 -0.0031,-0.02563 -0.0039,-0.03845 -0.0017,-0.02522 -0.0031,-0.05044 -0.0074,-0.07463 -0.0033,-0.01757 -0.0087,-0.03452 -0.01344,-0.05168 -0.006,-0.0215 -0.01158,-0.0432 -0.01984,-0.06367 -0.007,-0.01757 -0.01592,-0.03411 -0.02439,-0.05106 -0.0095,-0.01881 -0.01881,-0.03804 -0.03018,-0.05581 -0.0097,-0.0153 -0.0215,-0.02935 -0.03266,-0.04382 -0.01344,-0.01736 -0.02667,-0.03473 -0.04176,-0.05064 -0.01199,-0.01261 -0.02543,-0.02357 -0.03866,-0.03514 -0.01695,-0.01488 -0.0337,-0.02997 -0.05209,-0.043 -0.01488,-0.01054 -0.03121,-0.01922 -0.04693,-0.02832 -0.01861,-0.01096 -0.03721,-0.02212 -0.05705,-0.03101 -0.01881,-0.0085 -0.03907,-0.01447 -0.05912,-0.02108 -0.01923,-0.0064 -0.03824,-0.01364 -0.0583,-0.01819 -0.0186,-0.0041 -0.03721,-0.0056 -0.05581,-0.0081 -0.02356,-0.0031 -0.04692,-0.0068 -0.07132,-0.0072 -0.0033,0 -0.0064,-0.001 -0.0097,-0.001 -0.0124,0 -0.02419,0.0029 -0.03638,0.0037 -0.02605,0.0014 -0.05209,0.0031 -0.07731,0.0079 -0.01695,0.0031 -0.03307,0.0085 -0.04961,0.01282 -0.02212,0.006 -0.04444,0.01199 -0.06553,0.02046 -0.01716,0.0068 -0.03349,0.01571 -0.05003,0.02398 -0.01922,0.0097 -0.03845,0.01902 -0.05643,0.0306 -0.0155,0.0099 -0.02977,0.0215 -0.04424,0.03287 -0.01716,0.01323 -0.03432,0.02625 -0.04982,0.04114 -0.01323,0.01261 -0.02481,0.02667 -0.037,0.04052 -0.01426,0.01612 -0.02853,0.03225 -0.04114,0.04982 -0.01137,0.01612 -0.02088,0.03369 -0.03059,0.05085 -0.0099,0.01736 -0.02047,0.03452 -0.02873,0.05292 -0.0093,0.02067 -0.01592,0.04279 -0.02315,0.0647 -0.0056,0.01736 -0.0122,0.03431 -0.01633,0.05251 -0.0048,0.02108 -0.0064,0.04196 -0.0089,0.06305 -0.0025,0.02109 -0.006,0.04196 -0.0064,0.06367 0,0.0039 -0.001,0.0074 -0.001,0.01137 0,0.01488 0.0033,0.02873 0.0043,0.0432 0.0014,0.02336 0.0027,0.04672 0.0066,0.06904 z"
     id="path7"
     inkscape:connector-curvature="0" /></g>
</svg>