<?xml version="1.0" encoding="UTF-8" standalone="no"?>
<!-- Generator: Adobe Illustrator 16.0.4, SVG Export Plug-In . SVG Version: 6.00 Build 0)  -->

<svg
   xmlns:dc="http://purl.org/dc/elements/1.1/"
   xmlns:cc="http://creativecommons.org/ns#"
   xmlns:rdf="http://www.w3.org/1999/02/22-rdf-syntax-ns#"
   xmlns:svg="http://www.w3.org/2000/svg"
   xmlns="http://www.w3.org/2000/svg"
   xmlns:sodipodi="http://sodipodi.sourceforge.net/DTD/sodipodi-0.dtd"
   xmlns:inkscape="http://www.inkscape.org/namespaces/inkscape"
   version="1.1"
   id="Capa_1"
   x="0px"
   y="0px"
   width="16"
   height="16"
   viewBox="0 0 16 16"
   enable-background="new 0 0 216 146"
   xml:space="preserve"
   inkscape:version="0.48.2 r9819"
   sodipodi:docname="list29.svg"><metadata
   id="metadata21"><rdf:RDF><cc:Work
       rdf:about=""><dc:format>image/svg+xml</dc:format><dc:type
         rdf:resource="http://purl.org/dc/dcmitype/StillImage" /></cc:Work></rdf:RDF></metadata><defs
   id="defs19" /><sodipodi:namedview
   pagecolor="#ffffff"
   bordercolor="#666666"
   borderopacity="1"
   objecttolerance="10"
   gridtolerance="10"
   guidetolerance="10"
   inkscape:pageopacity="0"
   inkscape:pageshadow="2"
   inkscape:window-width="1237"
   inkscape:window-height="1106"
   id="namedview17"
   showgrid="false"
   inkscape:zoom="43.963909"
   inkscape:cx="6.9283091"
   inkscape:cy="7.7330509"
   inkscape:window-x="0"
   inkscape:window-y="0"
   inkscape:window-maximized="0"
   inkscape:current-layer="Capa_1" />
<g
   id="g3"
   transform="matrix(0.10490634,0,0,0.10490634,-3.3337218,0.24972424)">
	<path
   d="m 50.643,57.358 c -4.346,0 -8.039,1.52 -11.081,4.562 C 36.521,64.961 35,68.654 35,73 c 0,4.345 1.521,8.039 4.563,11.08 3.042,3.041 6.736,4.562 11.081,4.562 4.345,0 8.038,-1.521 11.08,-4.562 3.041,-3.041 4.562,-6.735 4.562,-11.08 0,-4.346 -1.521,-8.039 -4.563,-11.08 -3.041,-3.041 -6.734,-4.562 -11.08,-4.562 z"
   id="path5"
   inkscape:connector-curvature="0" />
	<path
   d="m 50.644,15.643 c -4.346,0 -8.039,1.521 -11.081,4.562 -3.041,3.042 -4.562,6.735 -4.562,11.08 0,4.346 1.52,8.039 4.562,11.081 3.042,3.041 6.736,4.562 11.081,4.562 4.345,0 8.038,-1.521 11.08,-4.562 3.041,-3.042 4.562,-6.735 4.562,-11.081 0,-4.345 -1.521,-8.038 -4.562,-11.08 -3.041,-3.041 -6.734,-4.562 -11.08,-4.562 z"
   id="path7"
   inkscape:connector-curvature="0" />
	<path
   d="m 50.644,99.072 c -4.346,0 -8.04,1.52 -11.081,4.562 -3.041,3.042 -4.562,6.735 -4.562,11.08 0,4.347 1.52,8.039 4.562,11.081 3.042,3.041 6.736,4.562 11.081,4.562 4.345,0 8.038,-1.521 11.08,-4.562 3.041,-3.042 4.562,-6.734 4.562,-11.081 0,-4.345 -1.521,-8.039 -4.562,-11.08 -3.041,-3.041 -6.734,-4.562 -11.08,-4.562 z"
   id="path9"
   inkscape:connector-curvature="0" />
	<path
   d="m 180.227,21.631 c -0.518,-0.515 -1.127,-0.773 -1.834,-0.773 H 79.321 c -0.706,0 -1.317,0.257 -1.833,0.773 -0.516,0.517 -0.774,1.127 -0.774,1.833 v 15.644 c 0,0.706 0.258,1.316 0.774,1.833 0.516,0.515 1.127,0.773 1.833,0.773 h 99.072 c 0.707,0 1.317,-0.257 1.834,-0.773 C 180.743,40.424 181,39.814 181,39.108 V 23.464 c 0,-0.706 -0.258,-1.317 -0.773,-1.833 z"
   id="path11"
   inkscape:connector-curvature="0" />
	<path
   d="M 178.393,62.572 H 79.321 c -0.706,0 -1.317,0.257 -1.833,0.774 -0.516,0.516 -0.774,1.127 -0.774,1.833 v 15.644 c 0,0.705 0.258,1.316 0.774,1.832 0.516,0.517 1.127,0.774 1.833,0.774 h 99.072 c 0.707,0 1.317,-0.257 1.834,-0.774 C 180.743,82.139 181,81.528 181,80.823 V 65.179 c 0,-0.706 -0.258,-1.318 -0.773,-1.833 -0.518,-0.516 -1.127,-0.774 -1.834,-0.774 z"
   id="path13"
   inkscape:connector-curvature="0" />
	<path
   d="M 178.393,104.286 H 79.321 c -0.706,0 -1.317,0.258 -1.833,0.774 -0.516,0.516 -0.774,1.127 -0.774,1.832 v 15.644 c 0,0.707 0.258,1.317 0.774,1.834 0.516,0.515 1.127,0.772 1.833,0.772 h 99.072 c 0.707,0 1.317,-0.257 1.834,-0.772 0.516,-0.517 0.773,-1.127 0.773,-1.834 v -15.644 c 0,-0.705 -0.258,-1.317 -0.773,-1.832 -0.518,-0.515 -1.127,-0.774 -1.834,-0.774 z"
   id="path15"
   inkscape:connector-curvature="0" />
</g>
</svg>