<?xml version="1.0" encoding="UTF-8" standalone="no"?>
<!-- Generator: Adobe Illustrator 16.0.4, SVG Export Plug-In . SVG Version: 6.00 Build 0)  -->

<svg
   xmlns:dc="http://purl.org/dc/elements/1.1/"
   xmlns:cc="http://creativecommons.org/ns#"
   xmlns:rdf="http://www.w3.org/1999/02/22-rdf-syntax-ns#"
   xmlns:svg="http://www.w3.org/2000/svg"
   xmlns="http://www.w3.org/2000/svg"
   xmlns:sodipodi="http://sodipodi.sourceforge.net/DTD/sodipodi-0.dtd"
   xmlns:inkscape="http://www.inkscape.org/namespaces/inkscape"
   version="1.1"
   id="Capa_1"
   x="0px"
   y="0px"
   width="16px"
   height="16px"
   viewBox="0 0 16 16"
   enable-background="new 0 0 16 16"
   xml:space="preserve"
   inkscape:version="0.48.2 r9819"
   sodipodi:docname="stop8.svg" preserveAspectRatio="xMinYMid meet"><metadata
   id="metadata13"><rdf:RDF><cc:Work
       rdf:about=""><dc:format>image/svg+xml</dc:format><dc:type
         rdf:resource="http://purl.org/dc/dcmitype/StillImage" /></cc:Work></rdf:RDF></metadata><defs
   id="defs11" /><sodipodi:namedview
   pagecolor="#ffffff"
   bordercolor="#666666"
   borderopacity="1"
   objecttolerance="10"
   gridtolerance="10"
   guidetolerance="10"
   inkscape:pageopacity="0"
   inkscape:pageshadow="2"
   inkscape:window-width="1493"
   inkscape:window-height="969"
   id="namedview9"
   showgrid="false"
   inkscape:zoom="14.75"
   inkscape:cx="-5.1864407"
   inkscape:cy="7.3559322"
   inkscape:window-x="0"
   inkscape:window-y="0"
   inkscape:window-maximized="0"
   inkscape:current-layer="Capa_1" />
<g
   id="g3"
   transform="matrix(0.95762712,0,0,0.95762712,0.40677966,0.27118644)">
	<path
   d="M 8,0 C 3.582,0 0,3.582 0,8 c 0,4.418 3.582,8 8,8 4.418,0 8,-3.582 8,-8 C 16,3.582 12.418,0 8,0 z M 8,15 C 4.14,15 1,11.859 1,8 1,4.14 4.14,1 8,1 c 3.859,0 7,3.14 7,7 0,3.859 -3.141,7 -7,7 z"
   id="path5"
   inkscape:connector-curvature="0" />

</g>
<g
   id="g2990"
   transform="matrix(0.27966102,0,0,0.27966102,5.8644056,6.0000002)">


<path
   sodipodi:type="arc"
   style="fill:#1b1b1b;fill-opacity:1;stroke:#000000;stroke-width:0.16;stroke-linecap:square;stroke-linejoin:round;stroke-miterlimit:0;stroke-opacity:1;stroke-dasharray:none"
   id="path3762"
   sodipodi:cx="-25.322035"
   sodipodi:cy="4.0338984"
   sodipodi:rx="2.2033899"
   sodipodi:ry="2.2033899"
   d="m -23.118645,4.0338984 c 0,1.2168986 -0.986491,2.2033898 -2.20339,2.2033898 -1.216898,0 -2.20339,-0.9864912 -2.20339,-2.2033898 0,-1.2168987 0.986492,-2.2033899 2.20339,-2.2033899 1.216899,0 2.20339,0.9864912 2.20339,2.2033899 z"
   transform="matrix(5.911466,0,0,5.911466,157.56914,-16.937163)" /></g></svg>