<?xml version="1.0" encoding="UTF-8" standalone="no"?>
<svg
   xmlns:dc="http://purl.org/dc/elements/1.1/"
   xmlns:cc="http://creativecommons.org/ns#"
   xmlns:rdf="http://www.w3.org/1999/02/22-rdf-syntax-ns#"
   xmlns:svg="http://www.w3.org/2000/svg"
   xmlns="http://www.w3.org/2000/svg"
   xmlns:sodipodi="http://sodipodi.sourceforge.net/DTD/sodipodi-0.dtd"
   xmlns:inkscape="http://www.inkscape.org/namespaces/inkscape"
   version="1.1"
   width="16"
   height="16"
   viewBox="0 0 16 16"
   enable-background="new 0 0 76.00 76.00"
   xml:space="preserve"
   id="svg2"
   inkscape:version="0.48.2 r9819"
   sodipodi:docname="checked5.svg" preserveAspectRatio="xMinYMid meet"><metadata
   id="metadata10"><rdf:RDF><cc:Work
       rdf:about=""><dc:format>image/svg+xml</dc:format><dc:type
         rdf:resource="http://purl.org/dc/dcmitype/StillImage" /></cc:Work></rdf:RDF></metadata><defs
   id="defs8" /><sodipodi:namedview
   pagecolor="#ffffff"
   bordercolor="#666666"
   borderopacity="1"
   objecttolerance="10"
   gridtolerance="10"
   guidetolerance="10"
   inkscape:pageopacity="0"
   inkscape:pageshadow="2"
   inkscape:window-width="979"
   inkscape:window-height="784"
   id="namedview6"
   showgrid="false"
   inkscape:zoom="7.6578947"
   inkscape:cx="38"
   inkscape:cy="38"
   inkscape:window-x="0"
   inkscape:window-y="0"
   inkscape:window-maximized="0"
   inkscape:current-layer="svg2" />
	
<path
   style="fill:#000000;fill-opacity:1;stroke-width:0.2;stroke-linejoin:round"
   d="m 1.6919539,1.9993893 10.7277331,0 c 0.538627,0 0.975253,0.259619 0.975253,0.7697937 0,0.5101357 -0.436626,0.769754 -0.975253,0.769754 l -10.7277331,0 c -0.5386267,0 -0.97525211,-0.2596183 -0.97525211,-0.7697931 0,-0.5101747 0.43662541,-0.7697546 0.97525211,-0.7697546 z"
   id="path2991"
   inkscape:connector-curvature="0" /><path
   style="fill:#000000;fill-opacity:1;stroke-width:0.2;stroke-linejoin:round"
   d="m 1.6919539,5.6977999 12.5157091,3.85e-5 c 0.538627,0 0.975252,0.2596189 0.975252,0.7697937 0,0.5101747 -0.595622,0.7377835 -1.134249,0.7377835 L 1.5329983,7.2053765 c -0.53862671,0 -0.81629651,-0.2276087 -0.81629651,-0.7377835 0,-0.5101747 0.43666641,-0.7697931 0.97525211,-0.7697931 z"
   id="path2989"
   inkscape:connector-curvature="0" /><path
   style="fill:#859392;fill-opacity:1;stroke-width:0.20000000000000001;stroke-linejoin:round"
   d="m 1.6919539,9.3642769 9.2648141,3.89e-5 c 0.538626,0 0.975252,0.2596186 0.975252,0.7697542 0,0.510175 -0.436626,0.769794 -0.975252,0.769794 l -9.2648141,0 c -0.5386267,0 -0.97525211,-0.259619 -0.97525211,-0.769794 0,-0.5101745 0.43662541,-0.7697931 0.97525211,-0.7697931 z"
   id="path4"
   inkscape:connector-curvature="0" /><path
   id="path2993"
   d="m 1.7737119,13.062725 10.0415031,3.9e-5 c 0.583782,0 1.05701,0.259619 1.05701,0.769755 0,0.510175 -0.473228,0.769793 -1.05701,0.769793 l -10.0415031,0 c -0.5837814,0 -1.05701011,-0.259618 -1.05701011,-0.769793 0,-0.510175 0.47322871,-0.769794 1.05701011,-0.769794 z"
   style="fill:#000000;fill-opacity:1;stroke-width:0.2;stroke-linejoin:round"
   inkscape:connector-curvature="0" /></svg>