<?xml version="1.0" encoding="UTF-8" standalone="no"?>
<!-- Generator: Adobe Illustrator 16.0.0, SVG Export Plug-In . SVG Version: 6.00 Build 0)  -->

<svg
   xmlns:dc="http://purl.org/dc/elements/1.1/"
   xmlns:cc="http://creativecommons.org/ns#"
   xmlns:rdf="http://www.w3.org/1999/02/22-rdf-syntax-ns#"
   xmlns:svg="http://www.w3.org/2000/svg"
   xmlns="http://www.w3.org/2000/svg"
   xmlns:sodipodi="http://sodipodi.sourceforge.net/DTD/sodipodi-0.dtd"
   xmlns:inkscape="http://www.inkscape.org/namespaces/inkscape"
   version="1.1"
   id="Capa_1"
   x="0px"
   y="0px"
   width="16"
   height="16"
   viewBox="0 0 16 16"
   xml:space="preserve"
   inkscape:version="0.48.2 r9819"
   sodipodi:docname="calendar5.svg"><metadata
   id="metadata51"><rdf:RDF><cc:Work
       rdf:about=""><dc:format>image/svg+xml</dc:format><dc:type
         rdf:resource="http://purl.org/dc/dcmitype/StillImage" /></cc:Work></rdf:RDF></metadata><defs
   id="defs49" /><sodipodi:namedview
   pagecolor="#ffffff"
   bordercolor="#666666"
   borderopacity="1"
   objecttolerance="10"
   gridtolerance="10"
   guidetolerance="10"
   inkscape:pageopacity="0"
   inkscape:pageshadow="2"
   inkscape:window-width="915"
   inkscape:window-height="789"
   id="namedview47"
   showgrid="false"
   inkscape:zoom="32.493269"
   inkscape:cx="7.8664952"
   inkscape:cy="7.5717987"
   inkscape:window-x="0"
   inkscape:window-y="0"
   inkscape:window-maximized="0"
   inkscape:current-layer="Capa_1" />
<g
   id="g3"
   transform="matrix(0.52443505,0,0,0.52443505,0.43085846,0.62693441)">
	<path
   style="fill:#2d2d2d"
   d="M 7.685,24.27 H 8.28 v -2.131 h 3.688 v 2.131 h 0.596 v -2.131 h 3.862 v 2.131 h 0.597 v -2.131 h 4.109 v 2.131 h 0.595 v -2.131 h 3.417 v -0.594 h -3.417 v -3.861 h 3.417 v -0.596 h -3.417 v -3.519 h 3.417 v -0.594 h -3.417 v -2.377 h -0.595 v 2.377 h -4.109 v -2.377 h -0.597 v 2.377 h -3.862 v -2.377 h -0.596 v 2.377 H 8.279 V 10.598 H 7.685 v 2.377 H 3.747 v 0.594 h 3.938 v 3.519 H 3.747 v 0.596 h 3.938 v 3.861 H 3.747 v 0.594 h 3.938 v 2.131 z m 4.878,-2.725 v -3.861 h 3.862 v 3.861 h -3.862 z m 8.569,0 h -4.109 v -3.861 h 4.109 v 3.861 z m 0,-7.976 v 3.519 h -4.109 v -3.519 h 4.109 z m -4.706,0 v 3.519 h -3.862 v -3.519 h 3.862 z m -8.147,0 h 3.688 v 3.519 H 8.279 v -3.519 z m 0,4.115 h 3.688 v 3.861 H 8.279 v -3.861 z"
   id="path5"
   inkscape:connector-curvature="0" />
	<path
   style="fill:#2d2d2d"
   d="m 29.207,1.955 -4.129,0.004 -0.603,0.002 v 2.448 c 0,0.653 -0.534,1.187 -1.188,1.187 h -1.388 c -0.656,0 -1.188,-0.533 -1.188,-1.187 V 1.965 l -1.583,0.002 v 2.442 c 0,0.653 -0.535,1.187 -1.191,1.187 h -1.388 c -0.655,0 -1.188,-0.533 -1.188,-1.187 V 1.968 L 13.679,1.972 V 4.41 c 0,0.653 -0.534,1.187 -1.189,1.187 H 11.101 C 10.448,5.597 9.913,5.064 9.913,4.41 V 1.976 H 8.181 V 4.41 c 0,0.653 -0.533,1.187 -1.188,1.187 H 5.605 C 4.949,5.597 4.416,5.064 4.416,4.41 V 1.981 L 0,1.985 V 28.138 H 2.09 27.15 L 29.237,28.132 29.207,1.955 z M 27.15,26.057 H 2.09 V 9.348 h 25.06 v 16.709 z"
   id="path7"
   inkscape:connector-curvature="0" />
	<path
   style="fill:#2d2d2d"
   d="m 5.605,4.754 h 1.388 c 0.163,0 0.296,-0.133 0.296,-0.297 V 0.297 C 7.289,0.132 7.156,0 6.993,0 H 5.605 C 5.44,0 5.307,0.132 5.307,0.297 v 4.16 c 0,0.164 0.133,0.297 0.298,0.297 z"
   id="path9"
   inkscape:connector-curvature="0" />
	<path
   style="fill:#2d2d2d"
   d="m 11.101,4.754 h 1.389 c 0.164,0 0.297,-0.133 0.297,-0.297 V 0.297 C 12.786,0.132 12.653,0 12.489,0 H 11.1 c -0.163,0 -0.296,0.132 -0.296,0.297 v 4.16 c 10e-4,0.164 0.134,0.297 0.297,0.297 z"
   id="path11"
   inkscape:connector-curvature="0" />
	<path
   style="fill:#2d2d2d"
   d="m 16.549,4.754 h 1.388 c 0.166,0 0.299,-0.133 0.299,-0.297 V 0.297 C 18.235,0.132 18.103,0 17.937,0 h -1.388 c -0.164,0 -0.297,0.132 -0.297,0.297 v 4.16 c 0,0.164 0.133,0.297 0.297,0.297 z"
   id="path13"
   inkscape:connector-curvature="0" />
	<path
   style="fill:#2d2d2d"
   d="m 21.899,4.754 h 1.388 c 0.164,0 0.296,-0.133 0.296,-0.297 V 0.297 C 23.583,0.132 23.451,0 23.287,0 h -1.388 c -0.164,0 -0.297,0.132 -0.297,0.297 v 4.16 c 0.001,0.164 0.133,0.297 0.297,0.297 z"
   id="path15"
   inkscape:connector-curvature="0" />
</g>
<g
   id="g17"
   transform="translate(0,-12.139)">
</g>
<g
   id="g19"
   transform="translate(0,-12.139)">
</g>
<g
   id="g21"
   transform="translate(0,-12.139)">
</g>
<g
   id="g23"
   transform="translate(0,-12.139)">
</g>
<g
   id="g25"
   transform="translate(0,-12.139)">
</g>
<g
   id="g27"
   transform="translate(0,-12.139)">
</g>
<g
   id="g29"
   transform="translate(0,-12.139)">
</g>
<g
   id="g31"
   transform="translate(0,-12.139)">
</g>
<g
   id="g33"
   transform="translate(0,-12.139)">
</g>
<g
   id="g35"
   transform="translate(0,-12.139)">
</g>
<g
   id="g37"
   transform="translate(0,-12.139)">
</g>
<g
   id="g39"
   transform="translate(0,-12.139)">
</g>
<g
   id="g41"
   transform="translate(0,-12.139)">
</g>
<g
   id="g43"
   transform="translate(0,-12.139)">
</g>
<g
   id="g45"
   transform="translate(0,-12.139)">
</g>
</svg>