<?xml version="1.0" encoding="UTF-8" standalone="no"?>
<!-- Generator: Adobe Illustrator 16.0.0, SVG Export Plug-In . SVG Version: 6.00 Build 0)  -->

<svg
   xmlns:dc="http://purl.org/dc/elements/1.1/"
   xmlns:cc="http://creativecommons.org/ns#"
   xmlns:rdf="http://www.w3.org/1999/02/22-rdf-syntax-ns#"
   xmlns:svg="http://www.w3.org/2000/svg"
   xmlns="http://www.w3.org/2000/svg"
   xmlns:sodipodi="http://sodipodi.sourceforge.net/DTD/sodipodi-0.dtd"
   xmlns:inkscape="http://www.inkscape.org/namespaces/inkscape"
   version="1.1"
   id="Layer_3"
   x="0px"
   y="0px"
   width="16"
   height="16"
   viewBox="0 0 16 16"
   enable-background="new 0 0 100 100"
   xml:space="preserve"
   inkscape:version="0.48.2 r9819"
   sodipodi:docname="candle4.svg" preserveAspectRatio="xMinYMid meet"><metadata
   id="metadata9"><rdf:RDF><cc:Work
       rdf:about=""><dc:format>image/svg+xml</dc:format><dc:type
         rdf:resource="http://purl.org/dc/dcmitype/StillImage" /></cc:Work></rdf:RDF></metadata><defs
   id="defs7" /><sodipodi:namedview
   pagecolor="#ffffff"
   bordercolor="#666666"
   borderopacity="1"
   objecttolerance="10"
   gridtolerance="10"
   guidetolerance="10"
   inkscape:pageopacity="0"
   inkscape:pageshadow="2"
   inkscape:window-width="861"
   inkscape:window-height="753"
   id="namedview5"
   showgrid="false"
   inkscape:zoom="18.212945"
   inkscape:cx="8.1216609"
   inkscape:cy="7.8610253"
   inkscape:window-x="0"
   inkscape:window-y="0"
   inkscape:window-maximized="0"
   inkscape:current-layer="Layer_3" />
<path
   d="M 10.815212,7.3600424 V 15.661097 H 5.5399942 v -3.360341 c -0.3564361,0.149468 -0.3442721,-0.165318 -0.1881699,-0.62017 -0.013452,0.0177 -0.021005,0.02727 -0.021005,0.02727 C 4.3731957,12.310705 5.0704023,10.800736 5.5401827,9.9004303 V 7.1746367 c 0,0 0.6798828,0.7779301 1.3713766,0 0.6914938,-0.7779303 3.9036577,0.1854057 3.9036577,0.1854057 z M 7.072817,5.9687619 c 0.040178,0.049946 0.1006242,0.07888 0.1647647,0.07888 h 0.4185455 c -0.035016,0 -0.066345,-0.020089 -0.081272,-0.051604 C 7.298958,5.4094118 7.2512236,4.896505 7.4331277,4.4715092 7.6769568,3.9022066 8.2416518,3.7081388 8.2656111,3.7003982 c 0.037228,-0.012533 0.078692,7.372e-4 0.1017302,0.032989 0.02248,0.031884 0.021933,0.075379 -0.00221,0.1065254 -0.2556245,0.3345044 -0.034279,0.5731728 -0.00611,0.6015551 0.7427286,0.7851178 0.1306691,1.5650753 0.1245866,1.5728158 -0.017319,0.021194 -0.042938,0.033542 -0.070222,0.033542 h 0.6085579 c 0.081831,0 0.1564709,-0.047181 0.1913038,-0.1214536 C 9.8634559,4.5443073 9.9760628,3.3356681 9.5471971,2.334735 8.972918,0.99339988 7.6424568,0.53670468 7.5862455,0.51790602 c -0.088278,-0.0293034 -0.1850369,0.002023 -0.2388527,0.0775908 -0.054189,0.0753785 -0.052156,0.1772965 0.0039,0.25101652 C 7.9533982,1.6349485 7.4320152,2.1970634 7.365849,2.2634115 5.6155528,4.1132301 7.0580679,5.9503322 7.0728118,5.9687622 z"
   id="path3"
   inkscape:connector-curvature="0" />
</svg>