<?xml version="1.0" encoding="UTF-8" standalone="no"?>
<!-- Generator: Adobe Illustrator 16.0.0, SVG Export Plug-In . SVG Version: 6.00 Build 0)  -->

<svg
   xmlns:dc="http://purl.org/dc/elements/1.1/"
   xmlns:cc="http://creativecommons.org/ns#"
   xmlns:rdf="http://www.w3.org/1999/02/22-rdf-syntax-ns#"
   xmlns:svg="http://www.w3.org/2000/svg"
   xmlns="http://www.w3.org/2000/svg"
   xmlns:sodipodi="http://sodipodi.sourceforge.net/DTD/sodipodi-0.dtd"
   xmlns:inkscape="http://www.inkscape.org/namespaces/inkscape"
   version="1.1"
   id="Layer_1"
   x="0px"
   y="0px"
   width="16"
   height="16"
   viewBox="0 0 16 16"
   enable-background="new 0 0 512 512"
   xml:space="preserve"
   inkscape:version="0.48.2 r9819"
   sodipodi:docname="user85.svg"><metadata
   id="metadata11"><rdf:RDF><cc:Work
       rdf:about=""><dc:format>image/svg+xml</dc:format><dc:type
         rdf:resource="http://purl.org/dc/dcmitype/StillImage" /></cc:Work></rdf:RDF></metadata><defs
   id="defs9" /><sodipodi:namedview
   pagecolor="#ffffff"
   bordercolor="#666666"
   borderopacity="1"
   objecttolerance="10"
   gridtolerance="10"
   guidetolerance="10"
   inkscape:pageopacity="0"
   inkscape:pageshadow="2"
   inkscape:window-width="848"
   inkscape:window-height="714"
   id="namedview7"
   showgrid="false"
   inkscape:zoom="24.163321"
   inkscape:cx="5.4215098"
   inkscape:cy="6.8313681"
   inkscape:window-x="0"
   inkscape:window-y="0"
   inkscape:window-maximized="0"
   inkscape:current-layer="Layer_1" />
<g
   id="g3"
   transform="matrix(0.02990731,0,0,0.02990731,0.37246536,0.35346779)">
	<path
   d="M 466,511.997 H 46 c -25.375,0 -46,-20.625 -46,-46 l 1.563,-36.875 c 38.313,-80.688 97.688,-97.844 100.188,-98.563 l 4.25,-0.563 h 30 c 24.25,0 44,-19.75 44,-44 V 271.73 C 168.126,256.48 159.313,239.964 153.72,222.542 l -1.125,-3.594 c -18.281,-16.609 -22.844,-43.563 -11.281,-64.531 0.313,-0.703 1.156,-2.078 2.125,-3.516 l -0.094,-17.203 c -0.031,-11.547 -0.031,-23.063 0.125,-34.578 0.906,-21.891 6.844,-41.203 17.156,-56.297 12.188,-18.234 32.563,-32.125 55.813,-38 22.75,-5.781 47.781,-6.375 72.219,-1.719 21.875,4.172 40.625,13.922 54.156,28.219 16,16.906 25.156,41.641 25.781,69.656 0.094,12.594 0.063,24.969 0.063,37.344 l -0.031,12.688 c 0.469,0.672 0.813,1.281 1.156,1.891 12.094,19.281 8.906,47 -7.813,63.719 l -2.625,2.422 c -6.563,20.781 -15.656,38.282 -27.344,53.329 v 13.625 c 0,24.25 19.75,44 44,44 l 34.25,0.563 c 2.5,0.719 61.875,17.875 100.188,98.563 l 1.563,6.875 v 30 C 512,491.372 491.375,511.997 466,511.997 z M 32,439.653 v 26.344 c 0,7.719 6.281,14 14,14 h 420 c 7.719,0 14,-6.281 14,-14 V 439.653 C 451.469,381.997 412.156,365.122 403.469,361.997 H 376 c -41.906,0 -76,-34.094 -76,-76 v -25.141 l 3.75,-4.469 c 11.406,-13.531 20.031,-29.844 25.656,-48.453 1,-6.188 6.281,-10.734 8.813,-12.906 7.375,-7.297 8.656,-18.438 4,-25.906 -2.219,-3.203 -5.938,-8.391 -5.563,-15.766 v -15.078 c 0,-12.281 0.031,-24.563 -0.063,-36.828 -0.438,-19.828 -6.5,-37 -17.031,-48.125 -11.219,-11.859 -26.25,-16.766 -36.906,-18.781 -19.906,-3.828 -40.094,-3.344 -58.375,1.297 -15.688,3.969 -29.219,13.031 -37.156,24.891 -7,10.281 -11,23.828 -11.688,39.297 -0.125,10.906 -0.125,22.25 -0.094,33.609 v 19.578 c 0.875,6.469 -3.188,12.391 -5.156,15.234 -5.281,9.469 -3.156,21.094 3.813,26.813 6.25,4.281 8.469,11.75 9.656,15.766 5.406,17 13.531,31.5 24.625,44.797 l 3.719,4.469 v 25.703 c 0,41.906 -34.094,76 -76,76 H 108.531 C 99.75,365.153 60.5,381.997 32,439.653 z"
   id="path5"
   inkscape:connector-curvature="0" />
</g>
</svg>