<?xml version="1.0" encoding="UTF-8" standalone="no"?>
<!-- Generator: Adobe Illustrator 16.0.0, SVG Export Plug-In . SVG Version: 6.00 Build 0)  -->

<svg
   xmlns:dc="http://purl.org/dc/elements/1.1/"
   xmlns:cc="http://creativecommons.org/ns#"
   xmlns:rdf="http://www.w3.org/1999/02/22-rdf-syntax-ns#"
   xmlns:svg="http://www.w3.org/2000/svg"
   xmlns="http://www.w3.org/2000/svg"
   xmlns:sodipodi="http://sodipodi.sourceforge.net/DTD/sodipodi-0.dtd"
   xmlns:inkscape="http://www.inkscape.org/namespaces/inkscape"
   version="1.1"
   id="Layer_1"
   x="0px"
   y="0px"
   width="16"
   height="16"
   viewBox="0 0 16 16"
   enable-background="new 0 0 512 512"
   xml:space="preserve"
   inkscape:version="0.48.2 r9819"
   sodipodi:docname="paper82.svg" preserveAspectRatio="xMinYMid meet"><metadata
   id="metadata9"><rdf:RDF><cc:Work
       rdf:about=""><dc:format>image/svg+xml</dc:format><dc:type
         rdf:resource="http://purl.org/dc/dcmitype/StillImage" /></cc:Work></rdf:RDF></metadata><defs
   id="defs7" /><sodipodi:namedview
   pagecolor="#ffffff"
   bordercolor="#666666"
   borderopacity="1"
   objecttolerance="10"
   gridtolerance="10"
   guidetolerance="10"
   inkscape:pageopacity="0"
   inkscape:pageshadow="2"
   inkscape:window-width="913"
   inkscape:window-height="864"
   id="namedview5"
   showgrid="false"
   inkscape:zoom="33.065152"
   inkscape:cx="7.7100584"
   inkscape:cy="7.5085666"
   inkscape:window-x="0"
   inkscape:window-y="0"
   inkscape:window-maximized="0"
   inkscape:current-layer="Layer_1" />
<path
   d="M 14.28239,7.6813361 9.825215,12.13851 c -0.9224299,0.921412 -2.4225026,0.921412 -3.3439142,0 -0.9219048,-0.921412 -0.9214124,-2.421485 0,-3.3428972 L 10.938475,4.3384393 11.681337,5.0813015 7.224688,9.5384758 c -0.5130261,0.5120082 -0.5130261,1.3451632 -5.251e-4,1.8571722 0.5120088,0.513026 1.3451636,0.513026 1.8571724,0 L 13.539528,6.9384739 c 1.228177,-1.2292277 1.228177,-3.2279793 0,-4.4571742 -1.229229,-1.2292279 -3.228997,-1.2292279 -4.4581934,0 l -6.686286,6.6857609 c -1.2292278,1.2292274 -1.2292278,3.2289964 0,4.4581914 1.2292278,1.228178 3.2284716,1.228178 4.4576993,0 l 0.00157,-0.002 c 0.3945296,0.16315 0.8147025,0.243166 1.2348421,0.251374 L 7.5956368,14.36815 c -1.6411593,1.640667 -4.3022316,1.640667 -5.9434237,0 -1.64115947,-1.641685 -1.64115947,-4.302232 0,-5.9439167 L 8.3384976,1.7384606 c 1.6416851,-1.64168525 4.3022324,-1.64168525 5.9439174,0 1.640666,1.6406336 1.640666,4.3012136 0,5.942898 z"
   id="path3"
   inkscape:connector-curvature="0" />
</svg>