<?xml version="1.0" encoding="UTF-8" standalone="no"?>
<svg
   xmlns:dc="http://purl.org/dc/elements/1.1/"
   xmlns:cc="http://creativecommons.org/ns#"
   xmlns:rdf="http://www.w3.org/1999/02/22-rdf-syntax-ns#"
   xmlns:svg="http://www.w3.org/2000/svg"
   xmlns="http://www.w3.org/2000/svg"
   xmlns:sodipodi="http://sodipodi.sourceforge.net/DTD/sodipodi-0.dtd"
   xmlns:inkscape="http://www.inkscape.org/namespaces/inkscape"
   version="1.1"
   width="16"
   height="16"
   viewBox="0 0 16 16"
   enable-background="new 0 0 76.00 76.00"
   xml:space="preserve"
   id="svg2"
   inkscape:version="0.48.2 r9819"
   sodipodi:docname="pin11.svg"><metadata
   id="metadata10"><rdf:RDF><cc:Work
       rdf:about=""><dc:format>image/svg+xml</dc:format><dc:type
         rdf:resource="http://purl.org/dc/dcmitype/StillImage" /></cc:Work></rdf:RDF></metadata><defs
   id="defs8" /><sodipodi:namedview
   pagecolor="#ffffff"
   bordercolor="#666666"
   borderopacity="1"
   objecttolerance="10"
   gridtolerance="10"
   guidetolerance="10"
   inkscape:pageopacity="0"
   inkscape:pageshadow="2"
   inkscape:window-width="983"
   inkscape:window-height="714"
   id="namedview6"
   showgrid="false"
   inkscape:zoom="20.946076"
   inkscape:cx="8.2118647"
   inkscape:cy="7.429179"
   inkscape:window-x="0"
   inkscape:window-y="0"
   inkscape:window-maximized="0"
   inkscape:current-layer="svg2" />
	<path
   d="M 15.368262,5.8604966 10.227517,0.71732128 C 9.9609374,0.97912086 9.7621772,1.2681863 9.6312774,1.5845579 9.5004181,1.9009294 9.4349479,2.224553 9.4349479,2.555388 c 0,0.3260138 0.065875,0.6472065 0.1975449,0.9635781 L 6.4237257,6.7253023 C 6.1539449,6.5855705 5.8733064,6.4803969 5.5818102,6.409741 5.2903141,6.3390851 4.9944424,6.3037166 4.6941143,6.3037166 4.2219269,6.3037166 3.7650538,6.3892416 3.3234138,6.56029 2.8817333,6.7313389 2.4874944,6.9894923 2.1405755,7.3347906 L 4.8747649,10.061728 3.1198324,12.08166 1.8033393,13.677617 0.97102564,14.788139 c -0.1934935,0.285864 -0.29028076,0.473767 -0.29028076,0.563707 l -0.007211,0.03853 0.0144634,0.0073 0,0.02407 0.0144229,-0.01685 0.0313171,0.0072 c 0.0899404,0 0.27784302,-0.09513 0.56370782,-0.28546 l 1.1105614,-0.827538 1.5959162,-1.321315 2.0295749,-1.757323 2.7172953,2.724548 c 0.3469189,-0.346919 0.6054774,-0.741158 0.775716,-1.182839 0.1702386,-0.44164 0.255358,-0.897743 0.255358,-1.368269 0,-0.301949 -0.034963,-0.598226 -0.104809,-0.888912 C 9.6072122,10.214302 9.501593,9.9332592 9.3606458,9.6618578 L 12.566617,6.455481 c 0.316372,0.1300895 0.637564,0.1951546 0.963578,0.1951546 0.332456,0 0.656444,-0.06547 0.972046,-0.1963295 0.315561,-0.1308998 0.604262,-0.3288498 0.866021,-0.5938095 z"
   id="path4"
   inkscape:connector-curvature="0"
   style="fill:#000000;fill-opacity:1;stroke-width:0.2;stroke-linejoin:round" />
</svg>