<?xml version="1.0" encoding="UTF-8" standalone="no"?>
<!-- Generator: Adobe Illustrator 16.0.4, SVG Export Plug-In . SVG Version: 6.00 Build 0)  -->

<svg
   xmlns:dc="http://purl.org/dc/elements/1.1/"
   xmlns:cc="http://creativecommons.org/ns#"
   xmlns:rdf="http://www.w3.org/1999/02/22-rdf-syntax-ns#"
   xmlns:svg="http://www.w3.org/2000/svg"
   xmlns="http://www.w3.org/2000/svg"
   xmlns:sodipodi="http://sodipodi.sourceforge.net/DTD/sodipodi-0.dtd"
   xmlns:inkscape="http://www.inkscape.org/namespaces/inkscape"
   version="1.1"
   id="Capa_1"
   x="0px"
   y="0px"
   width="16"
   height="16"
   viewBox="0 0 16 16"
   enable-background="new 0 0 216 146"
   xml:space="preserve"
   inkscape:version="0.48.2 r9819"
   sodipodi:docname="comments16.svg" preserveAspectRatio="xMinYMid meet"><metadata
   id="metadata13"><rdf:RDF><cc:Work
       rdf:about=""><dc:format>image/svg+xml</dc:format><dc:type
         rdf:resource="http://purl.org/dc/dcmitype/StillImage" /></cc:Work></rdf:RDF></metadata><defs
   id="defs11">


</defs><sodipodi:namedview
   pagecolor="#ffffff"
   bordercolor="#666666"
   borderopacity="1"
   objecttolerance="10"
   gridtolerance="10"
   guidetolerance="10"
   inkscape:pageopacity="0"
   inkscape:pageshadow="2"
   inkscape:window-width="1043"
   inkscape:window-height="816"
   id="namedview9"
   showgrid="false"
   inkscape:zoom="31.730019"
   inkscape:cx="8.4599095"
   inkscape:cy="7.352197"
   inkscape:window-x="0"
   inkscape:window-y="0"
   inkscape:window-maximized="0"
   inkscape:current-layer="Capa_1" />
<path
   inkscape:connector-curvature="0"
   id="path5"
   d="m 11.844065,12.019391 c 1.164763,-0.491059 2.084064,-1.159486 2.757637,-2.005279 0.673836,-0.8457925 1.010754,-1.7668087 1.010754,-2.7631787 0,-0.9963709 -0.336918,-1.9173862 -1.010754,-2.7633118 C 13.928129,3.6418287 13.008828,2.9734022 11.844065,2.4823434 10.679301,1.9912846 9.4123924,1.7458216 8.043208,1.7458216 c -1.3690532,0 -2.6359612,0.2455951 -3.8008562,0.7366538 C 3.077588,2.9735342 2.1582873,3.6419607 1.4845832,4.4877535 0.81074615,5.3335471 0.47382764,6.2545624 0.47382764,7.2509333 c 0,0.8529199 0.25470128,1.6560857 0.76357636,2.4085763 0.5088742,0.7526234 1.2077855,1.3871324 2.0966008,1.9031334 -0.071664,0.172221 -0.1451669,0.329661 -0.2203895,0.473243 -0.075359,0.143319 -0.1648299,0.281227 -0.2688217,0.41399 -0.103992,0.132628 -0.1844937,0.236489 -0.2419001,0.311579 -0.05741,0.07522 -0.1505774,0.181063 -0.2796443,0.317124 -0.129066,0.136192 -0.2115466,0.225799 -0.2473104,0.268822 0,-0.0073 -0.014383,0.0088 -0.043019,0.0483 -0.028766,0.03946 -0.044867,0.05727 -0.048432,0.05384 -0.00357,-0.0038 -0.017949,0.01413 -0.043019,0.05358 -0.025071,0.03946 -0.037614,0.05912 -0.037614,0.05912 l -0.026918,0.05372 c -0.010687,0.02138 -0.017949,0.04275 -0.021514,0.0644 -0.00357,0.02138 -0.00543,0.04486 -0.00543,0.06981 0,0.02495 0.00357,0.0483 0.010818,0.06982 0.014383,0.09317 0.055563,0.168261 0.1236548,0.2258 0.068099,0.05727 0.141472,0.08578 0.2203896,0.08578 h 0.032332 c 0.3582968,-0.05001 0.6665783,-0.107423 0.9245783,-0.171956 1.1039257,-0.28677 2.1002965,-0.745496 2.9891119,-1.376311 0.645067,0.114682 1.2758821,0.172087 1.8923121,0.172087 1.3690522,3.98e-4 2.6360932,-0.245067 3.8008562,-0.735993 z M 5.828362,11.121733 5.3552508,11.454957 c -0.2007258,0.13606 -0.4228307,0.27608 -0.6665782,0.419398 L 5.0650499,10.971024 4.0220943,10.368978 C 3.3338727,9.9676587 2.7999234,9.4945478 2.4199832,8.9497774 2.0400429,8.405007 1.8501388,7.8387252 1.8501388,7.2509333 c 0,-0.7312442 0.281491,-1.4157699 0.8440773,-2.053711 C 3.2568026,4.5592811 4.0148356,4.0539699 4.9681839,3.6811555 5.9215322,3.3084731 6.9465402,3.1219999 8.043208,3.1219999 c 1.096667,0 2.121807,0.1864732 3.075023,0.5591556 0.953349,0.3728144 1.711382,0.8781256 2.274101,1.5160668 0.562718,0.6379411 0.843946,1.3224668 0.843946,2.053711 0,0.7311116 -0.281228,1.4156369 -0.843946,2.0535783 -0.562719,0.6380727 -1.320752,1.1433844 -2.274101,1.5160664 -0.953216,0.372682 -1.978224,0.559023 -3.075023,0.559023 -0.5375122,0 -1.085846,-0.05028 -1.6450015,-0.150577 L 5.828362,11.121733 z" />
</svg>