<?xml version="1.0" encoding="UTF-8" standalone="no"?>
<!-- Generator: IcoMoon.io -->

<svg
    xmlns:dc="http://purl.org/dc/elements/1.1/"
    xmlns:cc="http://creativecommons.org/ns#"
    xmlns:rdf="http://www.w3.org/1999/02/22-rdf-syntax-ns#"
    xmlns:svg="http://www.w3.org/2000/svg"
    xmlns="http://www.w3.org/2000/svg"
    xmlns:sodipodi="http://sodipodi.sourceforge.net/DTD/sodipodi-0.dtd"
    xmlns:inkscape="http://www.inkscape.org/namespaces/inkscape"
    version="1.1"
    id="Layer_1"
    x="0px"
    y="0px"
    width="16"
    height="16"
    viewBox="0 0 16 16"
    enable-background="new 0 0 16 16"
    xml:space="preserve"
    inkscape:version="0.48.2 r9819"
    sodipodi:docname="branch.svg"
    style="fill:#000000">
    <metadata id="metadata9">
        <rdf:RDF>
            <cc:Work rdf:about="">
                <dc:format>image/svg+xml</dc:format>
                <dc:type rdf:resource="http://purl.org/dc/dcmitype/StillImage" />
            </cc:Work>
        </rdf:RDF>
    </metadata>
    <defs id="defs7" />
    <sodipodi:namedview
    pagecolor="#ffffff"
    bordercolor="#666666"
    borderopacity="1"
    objecttolerance="10"
    gridtolerance="10"
    guidetolerance="10"
    inkscape:pageopacity="0"
    inkscape:pageshadow="2"
    inkscape:window-width="1705"
    inkscape:window-height="977"
    id="namedview5"
    showgrid="false"
    inkscape:zoom="77.923487"
    inkscape:cx="7.0468019"
    inkscape:cy="6.8540764"
    inkscape:window-x="0"
    inkscape:window-y="0"
    inkscape:window-maximized="0"
    inkscape:current-layer="Layer_1" />
    <path d="M 5.9204331,10.32724 5.42,8.6042552 C 5.2388614,7.9805972 4.9994208,6.8147591 4.3091697,6.8196021 l -1.9028615,0.013933 -0.012833,-1.235167 3.3090708,0.01318 4.612708,0 2.945059,0 -0.01267,1.2103968 -2.93239,0.037072 C 7.1569554,6.8520173 6.1590689,6.7459701 6.7285393,8.6167441 l 0.4882106,1.6809199 c 0.2476302,0.852596 0.924329,1.122293 1.9570146,1.284438 l 4.0994605,0.02605 -0.01283,1.213486 -4.0994606,0.02668 c -1.7404925,0 -2.7780667,-0.928899 -3.2405013,-2.521078 z"
    id="path2992"
    inkscape:connector-curvature="0"
    sodipodi:nodetypes="sscccccccccsccccs" />
    <path inkscape:connector-curvature="0"
    id="path2994"
    d="m 15.783395,6.193847 c 0,1.0908362 -0.883342,1.9123058 -1.976154,1.9123058 -1.092813,0 -1.976153,-0.8214696 -1.976153,-1.9123058 0,-1.0908365 0.88334,-2.0399998 1.976153,-2.0399998 1.092812,0 1.976154,0.9491633 1.976154,2.0399998 z"
    sodipodi:nodetypes="sssss" />
    <path d="m 15.809061,12.200346 c 0,1.090837 -0.883342,1.976153 -1.976154,1.976153 -1.092813,0 -1.976153,-0.885316 -1.976153,-1.976153 0,-1.090836 0.88334,-1.976153 1.976153,-1.976153 1.092812,0 1.976154,0.885317 1.976154,1.976153 z"
    id="path2996"
    inkscape:connector-curvature="0"
    sodipodi:nodetypes="sssss" />
    <path d="m 4.1239679,6.193847 c 0,1.0908362 -0.8833405,1.9123058 -1.9761529,1.9123058 -1.0928127,0 -1.97615286,-0.8214696 -1.97615286,-1.9123058 0,-1.0908365 0.88334016,-2.0399998 1.97615286,-2.0399998 1.0928124,0 1.9761529,0.9491633 1.9761529,2.0399998 z"
    id="path3004"
    inkscape:connector-curvature="0"
    sodipodi:nodetypes="sssss" />
    <path sodipodi:type="arc"
    style="fill:#ffffff;fill-opacity:1;stroke:#000000;stroke-width:0.30000001;stroke-linecap:square;stroke-linejoin:round;stroke-miterlimit:4;stroke-opacity:1;stroke-dasharray:none"
    id="path2985"
    sodipodi:cx="9.0697708"
    sodipodi:cy="23.154737"
    sodipodi:rx="3.023257"
    sodipodi:ry="3.023257"
    d="m 12.093028,23.154737 a 3.023257,3.023257 0 1 1 -6.0465142,0 3.023257,3.023257 0 1 1 6.0465142,0 z"
    transform="matrix(0.35012918,0,0,0.35012918,-1.0277764,-1.9131634)" /><path
    transform="matrix(0.35012918,0,0,0.35012918,10.63165,-1.9516627)"
    d="m 12.093028,23.154737 a 3.023257,3.023257 0 1 1 -6.0465142,0 3.023257,3.023257 0 1 1 6.0465142,0 z"
    sodipodi:ry="3.023257"
    sodipodi:rx="3.023257"
    sodipodi:cy="23.154737"
    sodipodi:cx="9.0697708"
    id="path3755"
    style="fill:#ffffff;fill-opacity:1;stroke:#000000;stroke-width:0.30000001;stroke-linecap:square;stroke-linejoin:round;stroke-miterlimit:4;stroke-opacity:1;stroke-dasharray:none"
    sodipodi:type="arc" />
    <path sodipodi:type="arc"
    style="fill:#ffffff;fill-opacity:1;stroke:#000000;stroke-width:0.30000001;stroke-linecap:square;stroke-linejoin:round;stroke-miterlimit:4;stroke-opacity:1;stroke-dasharray:none"
    id="path3757"
    sodipodi:cx="9.0697708"
    sodipodi:cy="23.154737"
    sodipodi:rx="3.023257"
    sodipodi:ry="3.023257"
    d="m 12.093028,23.154737 a 3.023257,3.023257 0 1 1 -6.0465142,0 3.023257,3.023257 0 1 1 6.0465142,0 z"
    transform="matrix(0.35013305,0,0,0.35012948,10.657363,4.1192939)" />
</svg>