<?xml version="1.0" encoding="utf-8"?>
<!-- Generator: Adobe Illustrator 16.0.0, SVG Export Plug-In . SVG Version: 6.00 Build 0)  -->
<!DOCTYPE svg PUBLIC "-//W3C//DTD SVG 1.1//EN" "http://www.w3.org/Graphics/SVG/1.1/DTD/svg11.dtd">
<svg version="1.1" id="Layer_1" xmlns="http://www.w3.org/2000/svg" xmlns:xlink="http://www.w3.org/1999/xlink" x="0px" y="0px"
	 width="16px" height="16px" viewBox="0 0 16 16" enable-background="new 0 0 16 16" xml:space="preserve">
<linearGradient id="SVGID_1_" gradientUnits="userSpaceOnUse" x1="-48.5898" y1="-0.7446" x2="-48.5898" y2="-9.7563" gradientTransform="matrix(1 0 0 -1 59.04 -0.6602)">
	<stop  offset="0" style="stop-color:#FFFFFF"/>
	<stop  offset="0.7833" style="stop-color:#D6D6D6"/>
</linearGradient>
<path fill="url(#SVGID_1_)" stroke="#047982" stroke-width="0.2" d="M4.972,0.084h10.956v9.011H13.75V8.318h0.279
	c0.143,0,0.211-0.153,0.211-0.311V7.853c0-0.207-0.068-0.361-0.211-0.361h-1.334c-0.142,0-0.279,0.154-0.279,0.361v0.155
	c0,0.156,0.14,0.312,0.279,0.312h0.352v0.776H7.71V8.318h0.28c0.141,0,0.281-0.153,0.281-0.311V7.853
	c0-0.207-0.141-0.361-0.281-0.361H6.726c-0.14,0-0.28,0.154-0.28,0.361v0.155c0,0.156,0.141,0.312,0.28,0.312h0.282v0.776H4.972
	V0.084z"/>
<linearGradient id="SVGID_2_" gradientUnits="userSpaceOnUse" x1="5.5996" y1="6.9438" x2="5.5996" y2="15.9565">
	<stop  offset="0" style="stop-color:#FFFFFF"/>
	<stop  offset="0.7833" style="stop-color:#D6D6D6"/>
</linearGradient>
<path fill="url(#SVGID_2_)" stroke="#047982" stroke-width="0.2" d="M0.1,6.944h11v9.012H8.929v-0.775h0.21
	c0.141,0,0.279-0.156,0.279-0.311v-0.156c0-0.209-0.141-0.363-0.279-0.363H7.877c-0.141,0-0.278,0.154-0.278,0.363v0.156
	c0,0.154,0.138,0.311,0.278,0.311h0.28v0.775H2.903v-0.775h0.28c0.14,0,0.28-0.156,0.28-0.311v-0.156
	c0-0.209-0.141-0.363-0.28-0.363h-1.33c-0.141,0-0.211,0.154-0.211,0.363v0.156c0,0.154,0.07,0.311,0.211,0.311h0.35v0.775H0.1
	V6.944z"/>
<image overflow="visible" width="24" height="24" xlink:href="icon.gif"  transform="matrix(1 0 0 1 39 -1)">
</image>
</svg>
