<?xml version="1.0" encoding="UTF-8" standalone="no"?>
<!-- Generator: Adobe Illustrator 15.1.0, SVG Export Plug-In  -->

<svg
   xmlns:dc="http://purl.org/dc/elements/1.1/"
   xmlns:cc="http://creativecommons.org/ns#"
   xmlns:rdf="http://www.w3.org/1999/02/22-rdf-syntax-ns#"
   xmlns:svg="http://www.w3.org/2000/svg"
   xmlns="http://www.w3.org/2000/svg"
   xmlns:sodipodi="http://sodipodi.sourceforge.net/DTD/sodipodi-0.dtd"
   xmlns:inkscape="http://www.inkscape.org/namespaces/inkscape"
   version="1.1"
   x="0px"
   y="0px"
   width="12px"
   height="12px"
   viewBox="0 0 12 12"
   style="overflow:visible;enable-background:new 0 0 12 12;"
   xml:space="preserve"
   preserveAspectRatio="xMinYMid meet"
   id="svg2"
   inkscape:version="0.91 r13725"
   sodipodi:docname="insearch.svg"><metadata
     id="metadata10"><rdf:RDF><cc:Work
         rdf:about=""><dc:format>image/svg+xml</dc:format><dc:type
           rdf:resource="http://purl.org/dc/dcmitype/StillImage" /></cc:Work></rdf:RDF></metadata><sodipodi:namedview
     pagecolor="#ffffff"
     bordercolor="#666666"
     borderopacity="1"
     objecttolerance="10"
     gridtolerance="10"
     guidetolerance="10"
     inkscape:pageopacity="0"
     inkscape:pageshadow="2"
     inkscape:window-width="1500"
     inkscape:window-height="860"
     id="namedview8"
     showgrid="false"
     inkscape:zoom="56.25"
     inkscape:cx="6"
     inkscape:cy="6"
     inkscape:window-x="164"
     inkscape:window-y="69"
     inkscape:window-maximized="0"
     inkscape:current-layer="svg2" /><defs
     id="defs4" /><path
     style="fill:#999999"
     d="M 5.265625 0 C 2.3289162 0 0 2.3105223 0 5.2226562 C 0 8.1347902 2.3289162 10.443359 5.265625 10.443359 C 6.1770174 10.443359 6.9864517 10.243471 7.6953125 9.8417969 C 7.7965783 9.8417969 7.7971717 9.940597 7.8984375 10.041016 L 9.4179688 11.548828 C 10.025564 12.151339 10.937327 12.151339 11.544922 11.548828 C 12.152518 10.946318 12.152518 10.041964 11.544922 9.4394531 L 10.025391 7.9335938 C 9.9241248 7.8331754 9.8219687 7.8328403 9.7207031 7.7324219 C 10.125766 6.9290746 10.429688 6.1264219 10.429688 5.2226562 C 10.429688 2.3105223 8.1010679 5.9211895e-16 5.265625 0 z M 5.1835938 1.984375 A 3.2033896 3.2033896 0 0 1 8.3867188 5.1894531 A 3.2033896 3.2033896 0 0 1 5.1835938 8.3925781 A 3.2033896 3.2033896 0 0 1 1.9804688 5.1894531 A 3.2033896 3.2033896 0 0 1 5.1835938 1.984375 z "
     id="path6" /></svg>