<?xml version="1.0" encoding="UTF-8" standalone="no"?>
<!-- Generator: Adobe Illustrator 15.1.0, SVG Export Plug-In  -->

<svg
   xmlns:dc="http://purl.org/dc/elements/1.1/"
   xmlns:cc="http://creativecommons.org/ns#"
   xmlns:rdf="http://www.w3.org/1999/02/22-rdf-syntax-ns#"
   xmlns:svg="http://www.w3.org/2000/svg"
   xmlns="http://www.w3.org/2000/svg"
   xmlns:sodipodi="http://sodipodi.sourceforge.net/DTD/sodipodi-0.dtd"
   xmlns:inkscape="http://www.inkscape.org/namespaces/inkscape"
   version="1.1"
   x="0px"
   y="0px"
   width="12px"
   height="12px"
   viewBox="0 0 12 12"
   style="overflow:visible;enable-background:new 0 0 12 12;"
   xml:space="preserve"
   preserveAspectRatio="xMinYMid meet"
   id="svg2"
   inkscape:version="0.91 r13725"
   sodipodi:docname="notinsearch.svg"><metadata
     id="metadata10"><rdf:RDF><cc:Work
         rdf:about=""><dc:format>image/svg+xml</dc:format><dc:type
           rdf:resource="http://purl.org/dc/dcmitype/StillImage" /></cc:Work></rdf:RDF></metadata><sodipodi:namedview
     pagecolor="#ffffff"
     bordercolor="#666666"
     borderopacity="1"
     objecttolerance="10"
     gridtolerance="10"
     guidetolerance="10"
     inkscape:pageopacity="0"
     inkscape:pageshadow="2"
     inkscape:window-width="1317"
     inkscape:window-height="969"
     id="namedview8"
     showgrid="false"
     inkscape:zoom="65.333333"
     inkscape:cx="6"
     inkscape:cy="6"
     inkscape:window-x="0"
     inkscape:window-y="0"
     inkscape:window-maximized="0"
     inkscape:current-layer="svg2" /><defs
     id="defs4" /><path
     style="fill:#999999"
     d="M 5.265625 0 C 2.3289161 0 5.9211895e-16 2.3105223 0 5.2226562 C 0 8.1347902 2.3289161 10.443359 5.265625 10.443359 C 6.1770174 10.443359 6.9864518 10.243471 7.6953125 9.8417969 C 7.7965784 9.8417969 7.7971717 9.9405972 7.8984375 10.041016 L 9.4179688 11.548828 C 10.025563 12.151339 10.937327 12.151339 11.544922 11.548828 C 12.152517 10.946318 12.152517 10.041964 11.544922 9.4394531 L 10.025391 7.9335938 C 9.9241252 7.8331754 9.8219689 7.8328403 9.7207031 7.7324219 C 10.125766 6.9290746 10.429688 6.126422 10.429688 5.2226562 C 10.429688 2.3105223 8.101068 0 5.265625 0 z M 5.203125 2.0332031 A 3.2033896 3.2033896 0 0 1 8.40625 5.2363281 A 3.2033896 3.2033896 0 0 1 5.203125 8.4414062 A 3.2033896 3.2033896 0 0 1 2 5.2363281 A 3.2033896 3.2033896 0 0 1 5.203125 2.0332031 z "
     id="path6" /><path
     style="overflow:visible;fill:#999999"
     d="m 11.66098,3.1959147 c 0.515331,-0.514134 0.515331,-1.285335 0,-1.799468 L 10.759153,0.49671278 c -0.51533,-0.514134 -1.2883273,-0.514134 -1.8036553,0 C -2.1376129,11.529329 12.05734,-2.5686863 0.45254798,8.9799187 c -0.5153297,0.514133 -0.5153297,1.2853343 0,1.7994673 L 1.3543768,11.67912 c 0.5153293,0.514134 1.288325,0.514134 1.8036543,0 C 14.218677,0.64146678 3.1472411,11.68991 11.66098,3.1959147 Z"
     id="path6-9"
     inkscape:connector-curvature="0"
     sodipodi:nodetypes="cssccsscc" /></svg>