<?xml version="1.0" encoding="UTF-8" standalone="no"?>
<!-- Generator: Adobe Illustrator 19.0.0, SVG Export Plug-In . SVG Version: 6.00 Build 0)  -->

<svg
   version="1.1"
   id="Capa_1"
   x="0px"
   y="0px"
   viewBox="0 0 50 50"
   xml:space="preserve"
   inkscape:version="1.3.2 (091e20e, 2023-11-25)"
   sodipodi:docname="readonly.svg"
   width="50"
   height="50"
   inkscape:export-filename="/Applications/MAMP/htdocs/head/mod/surveypro/pix/readonly.png"
   inkscape:export-xdpi="28.799999"
   inkscape:export-ydpi="28.799999"
   preserveAspectRatio="xMinYMid meet"
   xmlns:inkscape="http://www.inkscape.org/namespaces/inkscape"
   xmlns:sodipodi="http://sodipodi.sourceforge.net/DTD/sodipodi-0.dtd"
   xmlns="http://www.w3.org/2000/svg"
   xmlns:svg="http://www.w3.org/2000/svg"
   xmlns:rdf="http://www.w3.org/1999/02/22-rdf-syntax-ns#"
   xmlns:cc="http://creativecommons.org/ns#"
   xmlns:dc="http://purl.org/dc/elements/1.1/"><metadata
     id="metadata41"><rdf:RDF><cc:Work
         rdf:about=""><dc:format>image/svg+xml</dc:format><dc:type
           rdf:resource="http://purl.org/dc/dcmitype/StillImage" /><dc:title /></cc:Work></rdf:RDF></metadata><defs
     id="defs39" /><sodipodi:namedview
     pagecolor="#ffffff"
     bordercolor="#666666"
     borderopacity="1"
     objecttolerance="10"
     gridtolerance="10"
     guidetolerance="10"
     inkscape:pageopacity="0"
     inkscape:pageshadow="2"
     inkscape:window-width="1584"
     inkscape:window-height="1008"
     id="namedview37"
     showgrid="false"
     inkscape:zoom="16.46"
     inkscape:cx="25.030377"
     inkscape:cy="25"
     inkscape:window-x="0"
     inkscape:window-y="25"
     inkscape:window-maximized="0"
     inkscape:current-layer="g4151"
     inkscape:showpageshadow="0"
     inkscape:pagecheckerboard="1"
     inkscape:deskcolor="#d1d1d1" /><g
     id="g7"
     transform="translate(0,-439.39999)" /><g
     id="g9"
     transform="translate(0,-439.39999)" /><g
     id="g11"
     transform="translate(0,-439.39999)" /><g
     id="g13"
     transform="translate(0,-439.39999)" /><g
     id="g15"
     transform="translate(0,-439.39999)" /><g
     id="g17"
     transform="translate(0,-439.39999)" /><g
     id="g19"
     transform="translate(0,-439.39999)" /><g
     id="g21"
     transform="translate(0,-439.39999)" /><g
     id="g23"
     transform="translate(0,-439.39999)" /><g
     id="g25"
     transform="translate(0,-439.39999)" /><g
     id="g27"
     transform="translate(0,-439.39999)" /><g
     id="g29"
     transform="translate(0,-439.39999)" /><g
     id="g31"
     transform="translate(0,-439.39999)" /><g
     id="g33"
     transform="translate(0,-439.39999)" /><g
     id="g35"
     transform="translate(0,-439.39999)" /><g
     id="g4151"
     transform="matrix(0.92786545,0.61249321,-0.62816251,0.90155697,16.373485,-16.722215)"><path
       style="fill:#2b1100;fill-opacity:1;stroke-width:0.103808"
       sodipodi:nodetypes="ccsccscscsccscscccsccscscccc"
       inkscape:connector-curvature="0"
       id="path5"
       d="m 47.992507,20.475494 c -0.13281,0 -0.255404,-0.08438 -0.286052,-0.200412 -1.287236,-4.767695 -5.516725,-8.090314 -10.297887,-8.090314 -0.153243,0 -0.296269,0 -0.449511,0.01055 -3.718682,0.15822 -7.079798,2.352203 -8.888058,5.68537 -0.950102,-0.421919 -1.981934,-0.632879 -3.034199,-0.632879 -1.042048,0 -2.063664,0.21096 -3.013766,0.632879 -1.869557,-3.491387 -5.42478,-5.695918 -9.358001,-5.695918 -4.7811619,0 -9.0106513,3.322619 -10.2978872,8.090314 -0.030648,0.126576 -0.1532424,0.21096 -0.2860524,0.21096 H 0.03786177 v 5.506054 H 2.0810934 c 0.13281,0 0.2554039,0.08438 0.2860524,0.200412 1.2872359,4.767695 5.5167253,8.090314 10.2978872,8.090314 0.153242,0 0.296269,0 0.449511,-0.01055 2.574472,-0.10548 5.02635,-1.191924 6.916339,-3.058919 1.838908,-1.814256 2.993334,-4.208651 3.258954,-6.771814 0.139089,-2.794508 0.842028,-2.770974 1.587808,-2.770974 0.735563,0 1.647575,-0.319702 1.885686,2.73933 0.275836,2.658095 1.471127,5.126326 3.391765,6.95113 1.981934,1.888091 4.556406,2.932343 7.253472,2.932343 4.781162,0 9.010651,-3.322619 10.297887,-8.090314 0.03065,-0.126576 0.153242,-0.21096 0.286052,-0.21096 h 2.043232 v -5.506054 h -2.043232 z" /><ellipse
       ry="6.094039"
       rx="5.9023209"
       cy="23.359659"
       cx="12.503321"
       id="path4169"
       style="fill:#ffffff;fill-opacity:1;fill-rule:evenodd;stroke:#ffffff;stroke-width:0.08033588px;stroke-linecap:butt;stroke-linejoin:miter;stroke-opacity:1" /><ellipse
       ry="6.094039"
       rx="5.9023209"
       cy="23.359659"
       cx="37.545567"
       id="path4169-0"
       style="fill:#ffffff;fill-opacity:1;fill-rule:evenodd;stroke:#ffffff;stroke-width:0.08033588px;stroke-linecap:butt;stroke-linejoin:miter;stroke-opacity:1" /></g></svg>
