<?xml version="1.0" encoding="UTF-8" standalone="no"?>
<!-- Generator: Adobe Illustrator 19.0.0, SVG Export Plug-In . SVG Version: 6.00 Build 0)  -->

<svg
   xmlns:dc="http://purl.org/dc/elements/1.1/"
   xmlns:cc="http://creativecommons.org/ns#"
   xmlns:rdf="http://www.w3.org/1999/02/22-rdf-syntax-ns#"
   xmlns:svg="http://www.w3.org/2000/svg"
   xmlns="http://www.w3.org/2000/svg"
   xmlns:sodipodi="http://sodipodi.sourceforge.net/DTD/sodipodi-0.dtd"
   xmlns:inkscape="http://www.inkscape.org/namespaces/inkscape"
   version="1.1"
   id="Capa_1"
   x="0px"
   y="0px"
   viewBox="0 0 50 50"
   xml:space="preserve"
   inkscape:version="0.91 r13725"
   sodipodi:docname="readonly.svg"
   width="50"
   height="50"
   inkscape:export-filename="/Applications/MAMP/htdocs/head/mod/surveypro/pix/readonly.png"
   inkscape:export-xdpi="28.799999"
   inkscape:export-ydpi="28.799999" preserveAspectRatio="xMinYMid meet"><metadata
     id="metadata41"><rdf:RDF><cc:Work
         rdf:about=""><dc:format>image/svg+xml</dc:format><dc:type
           rdf:resource="http://purl.org/dc/dcmitype/StillImage" /><dc:title /></cc:Work></rdf:RDF></metadata><defs
     id="defs39" /><sodipodi:namedview
     pagecolor="#ffffff"
     bordercolor="#666666"
     borderopacity="1"
     objecttolerance="10"
     gridtolerance="10"
     guidetolerance="10"
     inkscape:pageopacity="0"
     inkscape:pageshadow="2"
     inkscape:window-width="1581"
     inkscape:window-height="1008"
     id="namedview37"
     showgrid="false"
     inkscape:zoom="16.46"
     inkscape:cx="25"
     inkscape:cy="25"
     inkscape:window-x="0"
     inkscape:window-y="0"
     inkscape:window-maximized="0"
     inkscape:current-layer="Capa_1" /><g
     id="g7"
     transform="translate(0,-439.39999)" /><g
     id="g9"
     transform="translate(0,-439.39999)" /><g
     id="g11"
     transform="translate(0,-439.39999)" /><g
     id="g13"
     transform="translate(0,-439.39999)" /><g
     id="g15"
     transform="translate(0,-439.39999)" /><g
     id="g17"
     transform="translate(0,-439.39999)" /><g
     id="g19"
     transform="translate(0,-439.39999)" /><g
     id="g21"
     transform="translate(0,-439.39999)" /><g
     id="g23"
     transform="translate(0,-439.39999)" /><g
     id="g25"
     transform="translate(0,-439.39999)" /><g
     id="g27"
     transform="translate(0,-439.39999)" /><g
     id="g29"
     transform="translate(0,-439.39999)" /><g
     id="g31"
     transform="translate(0,-439.39999)" /><g
     id="g33"
     transform="translate(0,-439.39999)" /><g
     id="g35"
     transform="translate(0,-439.39999)" /><g
     id="g4151"
     transform="matrix(0.92786545,0.61249321,-0.62816251,0.90155697,16.373485,-16.722215)"><g
       style="fill:#999999;fill-opacity:1"
       transform="matrix(0.10216158,0,0,0.10547997,0.03786177,-2.5718798)"
       id="g3"><path
         style="fill:#999999;fill-opacity:1"
         sodipodi:nodetypes="ccsccscscsccscscccsccscscccc"
         inkscape:connector-curvature="0"
         id="path5"
         d="m 469.4,218.5 c -1.3,0 -2.5,-0.8 -2.8,-1.9 -12.6,-45.2 -54,-76.7 -100.8,-76.7 -1.5,0 -2.9,0 -4.4,0.1 -36.4,1.5 -69.3,22.3 -87,53.9 -9.3,-4 -19.4,-6 -29.7,-6 -10.2,0 -20.2,2 -29.5,6 -18.3,-33.1 -53.1,-54 -91.6,-54 -46.8,0 -88.2,31.5 -100.8,76.7 -0.3,1.2 -1.5,2 -2.8,2 l -20,0 0,52.2 20,0 c 1.3,0 2.5,0.8 2.8,1.9 12.6,45.2 54,76.7 100.8,76.7 1.5,0 2.9,0 4.4,-0.1 25.2,-1 49.2,-11.3 67.7,-29 18,-17.2 29.3,-39.9 31.9,-64.2 1.36146,-26.49325 8.24212,-26.27014 15.54212,-26.27014 7.2,0 16.12715,-3.03093 18.45788,25.97014 2.7,25.2 14.4,48.6 33.2,65.9 19.4,17.9 44.6,27.8 71,27.8 46.8,0 88.2,-31.5 100.8,-76.7 0.3,-1.2 1.5,-2 2.8,-2 l 20,0 0,-52.2 -20,0 z" /></g><ellipse
       ry="6.094039"
       rx="5.9023209"
       cy="23.359659"
       cx="12.503321"
       id="path4169"
       style="fill:#ffffff;fill-opacity:1;fill-rule:evenodd;stroke:#ffffff;stroke-width:0.08033588px;stroke-linecap:butt;stroke-linejoin:miter;stroke-opacity:1" /><ellipse
       ry="6.094039"
       rx="5.9023209"
       cy="23.359659"
       cx="37.545567"
       id="path4169-0"
       style="fill:#ffffff;fill-opacity:1;fill-rule:evenodd;stroke:#ffffff;stroke-width:0.08033588px;stroke-linecap:butt;stroke-linejoin:miter;stroke-opacity:1" /></g></svg>