<?xml version="1.0" encoding="UTF-8" standalone="no"?>
<!-- Created with Inkscape (http://www.inkscape.org/) -->

<svg
   width="50mm"
   height="50mm"
   viewBox="0 0 50 50"
   version="1.1"
   id="svg1"
   inkscape:version="1.3.2 (091e20e, 2023-11-25)"
   sodipodi:docname="timbro.svg"
   xmlns:inkscape="http://www.inkscape.org/namespaces/inkscape"
   xmlns:sodipodi="http://sodipodi.sourceforge.net/DTD/sodipodi-0.dtd"
   xmlns="http://www.w3.org/2000/svg"
   xmlns:svg="http://www.w3.org/2000/svg">
  <sodipodi:namedview
     id="namedview1"
     pagecolor="#ffffff"
     bordercolor="#666666"
     borderopacity="1.0"
     inkscape:showpageshadow="2"
     inkscape:pageopacity="0.0"
     inkscape:pagecheckerboard="0"
     inkscape:deskcolor="#d1d1d1"
     inkscape:document-units="mm"
     inkscape:zoom="1.2488333"
     inkscape:cx="94.488189"
     inkscape:cy="94.087815"
     inkscape:window-width="832"
     inkscape:window-height="480"
     inkscape:window-x="340"
     inkscape:window-y="255"
     inkscape:window-maximized="0"
     inkscape:current-layer="layer1" />
  <defs
     id="defs1" />
  <g
     inkscape:label="Livello 1"
     inkscape:groupmode="layer"
     id="layer1">
    <g
       id="g3"
       transform="matrix(0.08028666,0,0,0.07902584,5.2687906,5.5786238)">
	<g
   id="g2">
		<path
   d="M 453.571,286.711 H 307.425 c 1.697,-45.619 13.161,-92.88 34.203,-148.481 4.3,-11.378 6.528,-23.465 6.528,-35.839 0,-65.799 -61.007,-114.86 -126.683,-99.573 -36.545,8.479 -66.087,37.694 -75.011,74.164 -5.913,24.165 -3.279,48.361 7.015,69.591 19.312,39.766 28.925,86.243 30.578,140.139 H 37.949 C 16.993,286.711 0,303.704 0,324.661 v 46.981 c 0,20.957 16.993,37.949 37.949,37.949 h 3.017 v 38.175 c 0,24.166 19.567,43.745 43.725,43.745 h 322.13 c 24.156,0 43.745,-19.577 43.745,-43.745 v -38.175 h 3.004 c 20.957,0 37.949,-16.993 37.949,-37.949 v -46.981 c 10e-4,-20.957 -16.992,-37.95 -37.948,-37.95 z M 190.328,128.691 c -6.145,-12.673 -7.717,-27.109 -4.079,-41.973 5.253,-21.468 22.995,-39.014 44.496,-44.002 39.882,-9.283 76.452,20.126 76.452,59.676 0,7.405 -1.324,14.588 -3.88,21.351 -22.715,60.019 -35.211,111.848 -36.886,162.969 H 225.036 C 223.338,226.925 212.584,174.521 190.328,128.691 Z M 40.96,368.631 v -40.96 h 143.356 122.88 143.364 v 40.96 H 40.966 Z m 368.646,79.135 c 0,1.541 -1.245,2.785 -2.785,2.785 H 84.691 c -1.531,0 -2.765,-1.235 -2.765,-2.785 v -38.175 h 327.68 z"
   id="path1" />

	</g>

</g>
  </g>
</svg>
