<?xml version="1.0" encoding="UTF-8" standalone="no"?>
<!-- Generator: Adobe Illustrator 15.1.0, SVG Export Plug-In  -->

<svg
   xmlns:dc="http://purl.org/dc/elements/1.1/"
   xmlns:cc="http://creativecommons.org/ns#"
   xmlns:rdf="http://www.w3.org/1999/02/22-rdf-syntax-ns#"
   xmlns:svg="http://www.w3.org/2000/svg"
   xmlns="http://www.w3.org/2000/svg"
   xmlns:sodipodi="http://sodipodi.sourceforge.net/DTD/sodipodi-0.dtd"
   xmlns:inkscape="http://www.inkscape.org/namespaces/inkscape"
   version="1.1"
   x="0px"
   y="0px"
   width="50"
   height="50"
   viewBox="-0.4 -0.3 50 50"
   style="overflow:visible"
   xml:space="preserve"
   preserveAspectRatio="xMinYMid meet"
   id="svg2"
   inkscape:version="0.91 r13725"
   sodipodi:docname="unavailable.svg"
   inkscape:export-filename="/Applications/MAMP/htdocs/head/mod/surveypro/pix/unavailable.png"
   inkscape:export-xdpi="28"
   inkscape:export-ydpi="28"><metadata
     id="metadata10"><rdf:RDF><cc:Work
         rdf:about=""><dc:format>image/svg+xml</dc:format><dc:type
           rdf:resource="http://purl.org/dc/dcmitype/StillImage" /><dc:title></dc:title></cc:Work></rdf:RDF></metadata><sodipodi:namedview
     pagecolor="#ffffff"
     bordercolor="#666666"
     borderopacity="1"
     objecttolerance="10"
     gridtolerance="10"
     guidetolerance="10"
     inkscape:pageopacity="0"
     inkscape:pageshadow="2"
     inkscape:window-width="1617"
     inkscape:window-height="1107"
     id="namedview8"
     showgrid="false"
     showguides="true"
     inkscape:guide-bbox="true"
     inkscape:zoom="18.44"
     inkscape:cx="25"
     inkscape:cy="25"
     inkscape:window-x="0"
     inkscape:window-y="0"
     inkscape:window-maximized="0"
     inkscape:current-layer="svg2"><sodipodi:guide
       orientation="1,0"
       position="-3.1232469,7.7942975"
       id="guide3905" /></sodipodi:namedview><defs
     id="defs4" /><path
     style="fill:#999999"
     d="m 37.182918,9.7412276 c 1.669551,-1.665674 1.669551,-4.1641857 0,-5.8298601 L 34.261205,0.99643736 c -1.66955,-1.6656744 -4.173877,-1.6656744 -5.843427,0 C -7.521331,36.739565 38.467029,-8.9347464 0.87019251,28.480065 c -1.66955064,1.665674 -1.66955064,4.164186 0,5.82986 L 3.791906,37.224856 c 1.6695506,1.665673 4.1738766,1.665673 5.8434272,0 C 45.469264,1.4654079 9.6003144,37.259834 37.182918,9.7412276 Z"
     id="path6"
     inkscape:connector-curvature="0"
     sodipodi:nodetypes="cssccsscc" /><path
     sodipodi:nodetypes="cssccsscc"
     inkscape:connector-curvature="0"
     id="path3924"
     d="m 48.358575,20.97232 c 1.669551,-1.665674 1.669551,-4.164186 0,-5.82986 l -2.921713,-2.91493 c -1.66955,-1.665674 -4.173877,-1.665674 -5.843428,0 -35.9391086,35.743128 10.049251,-9.9311837 -27.547585,27.483628 -1.669551,1.665674 -1.669551,4.164186 0,5.82986 l 2.921714,2.91493 c 1.66955,1.665674 4.173876,1.665674 5.843426,0 35.833929,-35.759448 -0.03501,0.03498 27.547586,-27.483628 z"
     style="fill:#999999" /></svg>