<?xml version="1.0" encoding="UTF-8" standalone="no"?>
<!-- Generator: Adobe Illustrator 15.1.0, SVG Export Plug-In  -->

<svg
   xmlns:dc="http://purl.org/dc/elements/1.1/"
   xmlns:cc="http://creativecommons.org/ns#"
   xmlns:rdf="http://www.w3.org/1999/02/22-rdf-syntax-ns#"
   xmlns:svg="http://www.w3.org/2000/svg"
   xmlns="http://www.w3.org/2000/svg"
   xmlns:sodipodi="http://sodipodi.sourceforge.net/DTD/sodipodi-0.dtd"
   xmlns:inkscape="http://www.inkscape.org/namespaces/inkscape"
   version="1.1"
   x="0px"
   y="0px"
   width="12px"
   height="12px"
   viewBox="0 0 12 12"
   style="overflow:visible;enable-background:new 0 0 12 12;"
   xml:space="preserve"
   preserveAspectRatio="xMinYMid meet"
   id="svg2"
   inkscape:version="0.91 r13725"
   sodipodi:docname="unreservable.svg"><metadata
     id="metadata10"><rdf:RDF><cc:Work
         rdf:about=""><dc:format>image/svg+xml</dc:format><dc:type
           rdf:resource="http://purl.org/dc/dcmitype/StillImage" /><dc:title></dc:title></cc:Work></rdf:RDF></metadata><sodipodi:namedview
     pagecolor="#ffffff"
     bordercolor="#666666"
     borderopacity="1"
     objecttolerance="10"
     gridtolerance="10"
     guidetolerance="10"
     inkscape:pageopacity="0"
     inkscape:pageshadow="2"
     inkscape:window-width="1165"
     inkscape:window-height="952"
     id="namedview8"
     showgrid="false"
     inkscape:zoom="63.833333"
     inkscape:cx="6"
     inkscape:cy="5.3655352"
     inkscape:window-x="730"
     inkscape:window-y="49"
     inkscape:window-maximized="0"
     inkscape:current-layer="svg2" /><defs
     id="defs4" /><g
     id="g3337"
     transform="matrix(0.97325352,0,0,0.97325352,0.16831179,0.16831179)"><path
       inkscape:connector-curvature="0"
       id="path6"
       d="M 12,6.4 12,8 8.9,8 C 9,7.8 9.1,7.4 9.1,6.9 9.1,5.1 8.1,3.7 6.8,3.2 6.8,3.1 6.8,3 6.8,2.9 6.8,1.3 7.8,0 9,0 c 1.2,0 2.2,1.3 2.2,2.9 0,1.1 -0.5,1.7 -0.5,1.7 -0.3,0.4 -0.2,1 0.3,1.2 l 1,0.6 z M 2.7,6.9 C 2.7,5 3.8,3.5 5.3,3.1 5.3,3 5.3,3 5.3,2.9 5.3,1.3 4.3,0 3.1,0 1.9,0 0.9,1.3 0.9,2.9 0.9,4 1.4,4.6 1.4,4.6 1.7,5 1.6,5.6 1.1,5.9 L 0,6.4 0,8 2.9,8 C 2.8,7.8 2.7,7.4 2.7,6.9 Z m 8,5.1 C 10.6,11.5 10.3,11.1 9.9,10.9 L 7.8,9.8 C 7.3,9.5 7.2,9 7.6,8.6 7.6,8.6 8.1,8 8.1,6.9 8.1,5.3 7.1,4 5.9,4 4.7,4 3.7,5.3 3.7,6.9 3.7,8 4.2,8.6 4.2,8.6 4.5,9 4.4,9.6 3.9,9.9 L 1.8,11 C 1.5,11.1 1.2,11.6 1,12 l 9.7,0 z"
       style="fill:#999999;stroke:#ff0000;stroke-width:0.30000001;stroke-miterlimit:4;stroke-dasharray:none;stroke-opacity:1" /></g></svg>