<?xml version="1.0" encoding="UTF-8" standalone="no"?>
<!-- Generator: Adobe Illustrator 15.1.0, SVG Export Plug-In  -->

<svg
   xmlns:dc="http://purl.org/dc/elements/1.1/"
   xmlns:cc="http://creativecommons.org/ns#"
   xmlns:rdf="http://www.w3.org/1999/02/22-rdf-syntax-ns#"
   xmlns:svg="http://www.w3.org/2000/svg"
   xmlns="http://www.w3.org/2000/svg"
   xmlns:sodipodi="http://sodipodi.sourceforge.net/DTD/sodipodi-0.dtd"
   xmlns:inkscape="http://www.inkscape.org/namespaces/inkscape"
   version="1.1"
   x="0px"
   y="0px"
   width="50"
   height="50"
   viewBox="0 0 50 50"
   style="overflow:visible"
   xml:space="preserve"
   preserveAspectRatio="xMinYMid meet"
   id="svg2"
   inkscape:version="0.91 r13725"
   sodipodi:docname="unsearchable.svg"><metadata
     id="metadata10"><rdf:RDF><cc:Work
         rdf:about=""><dc:format>image/svg+xml</dc:format><dc:type
           rdf:resource="http://purl.org/dc/dcmitype/StillImage" /><dc:title></dc:title></cc:Work></rdf:RDF></metadata><sodipodi:namedview
     pagecolor="#ffffff"
     bordercolor="#666666"
     borderopacity="1"
     objecttolerance="10"
     gridtolerance="10"
     guidetolerance="10"
     inkscape:pageopacity="0"
     inkscape:pageshadow="2"
     inkscape:window-width="1078"
     inkscape:window-height="843"
     id="namedview8"
     showgrid="false"
     inkscape:zoom="11.3"
     inkscape:cx="25.706752"
     inkscape:cy="25"
     inkscape:window-x="115"
     inkscape:window-y="255"
     inkscape:window-maximized="0"
     inkscape:current-layer="svg2" /><defs
     id="defs4" /><path
     style="fill:#999999;stroke:#ff0000;stroke-width:1.22;stroke-miterlimit:4;stroke-dasharray:none;stroke-opacity:1"
     d="m 22.038721,0.73796996 c -11.880295,0 -21.30179828,9.34629904 -21.30179828,21.12617904 0,11.779879 9.42150328,21.118276 21.30179828,21.118276 3.686987,0 6.961512,-0.808564 9.829168,-2.433381 0.409667,0 0.412068,0.399657 0.821731,0.805863 l 6.147181,6.099255 c 2.45799,2.437218 6.146481,2.437218 8.604473,0 2.457996,-2.437217 2.457996,-6.095418 0,-8.532639 L 41.294097,32.83017 c -0.409666,-0.406222 -0.822935,-0.407578 -1.2326,-0.813761 1.638657,-3.249624 2.868157,-6.496436 2.868157,-10.15226 0,-11.77988 -9.420303,-21.12617904 -20.890933,-21.12617904 z M 21.785881,8.9624877 A 12.959138,12.958038 0 0 1 34.743949,21.919453 12.959138,12.958038 0 0 1 21.785881,34.884322 12.959138,12.958038 0 0 1 8.8278134,21.919453 12.959138,12.958038 0 0 1 21.785881,8.9624877 Z"
     id="path6"
     inkscape:connector-curvature="0" /><path
     style="overflow:visible;fill:#999999;stroke:#ff0000;stroke-width:1.22;stroke-miterlimit:4;stroke-dasharray:none;stroke-opacity:1"
     d="m 47.657181,13.304688 c 2.083423,-2.081768 2.083423,-5.2044145 0,-7.2861775 l -3.64598,-3.6430864 c -2.083424,-2.08176298 -5.208561,-2.08176298 -7.291971,0 C -8.1288977,47.047275 49.259614,-10.036596 2.3428152,36.724533 c -2.08341667,2.081759 -2.08341667,5.20441 0,7.286169 l 3.6459866,3.643095 c 2.0834156,2.081763 5.2085452,2.081763 7.2919602,0 44.71688,-44.6922549 -0.04362,0.04375 34.376419,-34.349109 z"
     id="path6-9"
     inkscape:connector-curvature="0"
     sodipodi:nodetypes="cssccsscc" /></svg>